<?xml version="1.0" encoding="utf-8"?>
<!DOCTYPE svg PUBLIC "-//W3C//DTD SVG 1.0//EN" "http://www.w3.org/TR/2001/REC-SVG-20010904/DTD/svg10.dtd">
<svg version="1.0" xmlns="http://www.w3.org/2000/svg" width="1024px" height="1024px" viewBox="0 0 1024 1024" preserveAspectRatio="xMidYMid meet">
 <g fill="#000000">
  <path d="M151.85 926.35 c-1.10 -1 -2 -2.50 -2.35 -3.85 -0.85 -3.20 -0.40 -9.25 0.90 -11.80 1.35 -2.65 4.55 -5.50 6.95 -6.20 l1.95 -0.60 -0.35 -3.05 c-0.85 -6.65 0.60 -12.95 3.75 -16.70 0.70 -0.85 2.85 -2.60 4.70 -3.80 4.20 -2.80 6.30 -5.15 8.30 -9.35 1.35 -2.80 1.55 -3.75 1.50 -7 -0.05 -3.15 -0.50 -5.05 -2.90 -12 -3.40 -9.85 -4.30 -14 -4.30 -20.25 0 -8.40 2.95 -14.45 8.50 -17.40 l2.75 -1.45 7 0.40 c12.55 0.70 15.20 0.55 18.20 -1.05 4.80 -2.65 14.80 -12.90 21.35 -22 8.25 -11.40 20.20 -31.50 26.05 -43.80 5.40 -11.30 10.60 -18.95 17.60 -25.90 8.55 -8.45 16.90 -13.95 35.05 -23.05 16.40 -8.20 24.70 -14 34.45 -23.95 5.10 -5.25 6.40 -7.20 16.05 -24.30 12.15 -21.55 20.70 -33.55 32.90 -46.35 6.30 -6.55 16.40 -18 18.60 -21.05 2.35 -3.30 3.55 -6.25 4.35 -10.80 0.90 -5.10 0.70 -7.35 -1.15 -15.80 -1.30 -6 -1.40 -7.30 -1.40 -17.50 -0.05 -11.95 0.30 -14.30 3.25 -23.35 3.05 -9.15 7.35 -16.95 14.60 -26.35 4.95 -6.45 20.90 -25.55 26.80 -32.05 2.40 -2.60 5.65 -6.30 7.30 -8.25 1.65 -1.90 5.40 -5.95 8.30 -9 2.90 -3 5.55 -5.95 5.85 -6.50 1 -1.95 2.10 -8.75 2.10 -12.90 0 -8.65 -3.80 -22.30 -10.20 -36.50 -5.05 -11.20 -15.15 -31.80 -21.05 -42.85 -12.40 -23.30 -11.75 -22 -11.75 -24.55 0 -2.05 -0.20 -2.55 -1.75 -3.90 -1 -0.85 -2.65 -2 -3.70 -2.50 l-1.90 -1 -1.95 1.30 c-1.05 0.75 -4.05 2.90 -6.65 4.80 -12.75 9.45 -25.20 16.95 -37.55 22.60 -8.30 3.80 -9.60 4.30 -21.20 8.30 -10.65 3.70 -9.65 3.15 -20.15 11.35 -2.80 2.20 -6.50 5 -8.20 6.20 -6.55 4.55 -8.30 5.75 -9.75 6.50 -0.80 0.45 -3.45 1.90 -5.95 3.25 -2.45 1.35 -5.50 2.95 -6.75 3.50 -8.45 3.95 -28.55 11.35 -51.25 18.90 -28.85 9.50 -40.55 13.95 -54.05 20.50 -4.25 2.05 -8.35 3.75 -9.10 3.75 -1.95 0 -3 -0.95 -3.20 -2.90 l-0.15 -1.70 -4.25 3.40 c-6.55 5.20 -10.95 7.90 -20.35 12.45 -4.75 2.35 -9.80 5.15 -11.15 6.20 -3.35 2.65 -5.30 2.90 -13.05 1.55 -3.40 -0.55 -7 -1.25 -8 -1.50 -2.55 -0.70 -7.85 -0.75 -10.20 -0.10 -1.10 0.30 -3.75 0.90 -5.95 1.35 -2.15 0.45 -7.20 1.80 -11.25 3 -13.70 4.05 -17.30 4.60 -19.80 2.95 -1.10 -0.70 -1.25 -1.20 -1.25 -3.70 0 -2.60 0.20 -3.15 1.75 -5 2.85 -3.45 4.20 -4.20 13.90 -8 2.95 -1.20 5.30 -2.40 5.20 -2.70 -0.10 -0.30 -3.20 -3.05 -6.90 -6.15 -3.70 -3.10 -7.10 -6.10 -7.55 -6.70 -1.20 -1.40 -1.15 -4.30 0.05 -6.25 1.35 -2.20 3.75 -2.90 8.90 -2.55 3.55 0.20 4.75 0.55 8.15 2.25 2.85 1.40 4 1.75 4 1.25 0 -1.45 2.35 -3.15 4.35 -3.15 3.15 0 8.05 2.60 10.95 5.85 l2.55 2.80 3.10 -1.15 c6.80 -2.50 10.80 -9.60 8.25 -14.65 -1.35 -2.60 -2.65 -3.75 -8.70 -7.50 -3.40 -2.10 -7.15 -4.95 -9.10 -6.90 l-3.40 -3.35 0 -3.85 c0 -3.55 0.10 -3.95 1.45 -5.30 1.40 -1.40 1.65 -1.45 6.20 -1.45 5.50 0 7.30 0.55 19.10 5.70 4.15 1.80 9.65 3.85 12.25 4.50 6.35 1.70 25 4.85 28.75 4.85 7.30 0.05 13.30 -2.25 26.55 -10.20 11.75 -7.05 18.45 -11.90 42.85 -31 5.85 -4.60 14.75 -10.25 21.70 -13.75 8.30 -4.20 12.15 -5.80 23.50 -9.65 7.90 -2.65 15.80 -5.75 20.15 -7.85 3.05 -1.45 20.15 -11.15 22.50 -12.75 2.45 -1.65 8.95 -6.70 9.75 -7.60 0.30 -0.30 2.75 -2.60 5.50 -5.10 4.90 -4.40 12 -12.15 18.10 -19.65 13.70 -16.95 29.30 -28.10 46.35 -33.05 6.50 -1.90 9.55 -2.40 18.70 -2.95 9.20 -0.60 13.85 -1.50 17.85 -3.45 5.45 -2.70 9.70 -8.35 12.10 -16 1.25 -3.90 1.25 -4.40 0.70 -7.20 -0.35 -1.65 -1.40 -4.55 -2.35 -6.40 -1.40 -2.80 -2.55 -4.15 -6.50 -7.55 -11.50 -9.90 -13.20 -11.55 -15.85 -15 -6.05 -8 -9 -15.65 -9.60 -25.15 -0.70 -10.95 1.05 -19.15 6.15 -29 1.90 -3.65 3.30 -5.45 7.35 -9.55 8.35 -8.45 15.95 -12.75 30.55 -17.25 2.95 -0.90 12.55 -1.55 18.95 -1.30 6.50 0.25 12.40 1.45 15.55 3.10 0.80 0.40 1.70 0.75 1.95 0.75 0.30 0 2.55 1.15 5 2.55 10.65 6.10 18.75 14.40 18.75 19.20 0 2.30 0.70 3.15 4.30 5.40 2.70 1.65 9.75 5.55 15.65 8.65 5.80 3 6.25 3.65 5.80 7.80 -0.30 2.85 -0.55 3.40 -2.55 5.40 l-2.20 2.30 1.75 1.70 c1.65 1.60 1.80 1.95 1.70 4.35 -0.10 1.50 0.15 2.90 0.50 3.35 0.40 0.45 0.60 2.05 0.50 4.40 l-0.10 3.65 2.20 2.45 2.15 2.45 0.20 4.90 c0.30 7.55 -0.70 8.65 -11.15 12.20 -10.80 3.70 -16.25 6.80 -18.10 10.45 -0.65 1.20 -0.80 2.85 -0.70 7.55 0.05 4 -0.15 7.15 -0.70 9.50 -1.70 7.60 -1.95 10.05 -1.30 12.95 1.60 7.10 6.70 13.55 12.55 15.80 4.50 1.70 10.70 1.70 18 -0.10 9.55 -2.35 12.10 -2.65 25.25 -2.65 13.85 0 18.90 0.60 27.40 3.30 2.55 0.80 4.80 1.45 5.05 1.45 0.30 0 3.10 -1 6.25 -2.20 13.95 -5.40 24.30 -7.10 46.80 -7.75 18 -0.55 17.40 -0.35 27.05 -8.55 8.45 -7.15 12.95 -10.25 28.45 -19.50 36.45 -21.75 46.60 -29.45 56 -42.50 2.35 -3.25 4.05 -6.30 5.35 -9.60 1.05 -2.70 2.65 -6.40 3.60 -8.25 4.85 -9.65 5.95 -14.40 5.45 -23.40 -0.30 -5.45 -0.25 -5.60 0.90 -6.40 0.80 -0.60 2.25 -0.85 4.70 -0.85 3.40 0 3.70 0.10 5.70 1.80 3.60 3.10 5.55 8.50 5.55 15.60 0 3.50 0.45 4.25 3.60 5.60 2.35 1 3.15 1.10 7.30 0.85 2.55 -0.20 4.85 -0.45 5.10 -0.60 0.25 -0.15 0.60 -1.70 0.75 -3.50 0.30 -2.85 0.15 -3.90 -1.15 -8.15 -2.30 -7.35 -2.60 -8.60 -2.60 -11.75 0 -3.50 0.95 -5.50 3 -6.35 1.70 -0.70 5.15 -0.40 6.30 0.55 0.95 0.80 3.45 5.65 4.50 8.80 0.45 1.35 1.70 4.45 2.85 7 l2 4.60 2.50 -2.25 c1.35 -1.20 2.75 -2.20 3.05 -2.20 0.40 0 0.85 -1.60 1.20 -4.40 0.70 -5.30 1.80 -8.80 3.50 -11 3.50 -4.75 9.95 -4.90 10.90 -0.20 0.25 1.30 0.35 1.35 3.30 1.20 8 -0.50 11.40 1.20 11.40 5.65 0 2.65 -0.25 2.90 -6.10 7.05 -2.40 1.70 -4.90 4.10 -6.60 6.20 -2.30 3 -2.70 3.85 -3 6.35 -1 8.55 -1.85 9.90 -8.75 13.65 -7.35 4 -12.80 7.80 -17.60 12.25 -5.80 5.35 -6.75 6 -16.70 11.65 -9.10 5.15 -12.95 7.80 -18.85 13.10 -4.45 4 -6.70 6.40 -22.70 24.50 -35.45 40.05 -53.75 55 -83.20 67.85 -10 4.40 -23.25 9.60 -30.25 11.90 -20.95 6.90 -30.30 9.40 -47.10 12.70 -13.50 2.70 -17.15 3.15 -22.55 2.95 -3.80 -0.10 -4.55 -0.05 -4.35 0.55 0.15 0.40 0.65 2.75 1.05 5.25 1.20 6.80 0.75 17.35 -0.95 22.10 -1.65 4.65 -2.65 6.65 -4.45 8.50 l-1.50 1.60 1.05 3.25 c1.80 5.80 2.60 11.40 2.90 20.15 0.50 14.10 -1.65 28.15 -6.95 45.95 -1.10 3.75 -8.30 23.90 -12.15 34.25 -1.30 3.45 -4 10.85 -6 16.50 -9.90 27.70 -12.55 34.30 -17.85 43.90 l-2.55 4.60 -2.50 0 -2.45 0 0.25 -2.85 c0.55 -6.60 2.15 -14.80 5.85 -29.90 2.15 -8.80 4.65 -19.50 5.50 -23.75 0.85 -4.25 2.90 -13.15 4.50 -19.75 1.65 -6.60 3.80 -15.60 4.80 -20 1 -4.40 2.35 -10.35 3.05 -13.25 2.90 -12.70 4.50 -22.35 5 -31.05 0.25 -4.55 0.15 -5.80 -0.75 -8.80 -1.10 -3.60 -3.60 -7.65 -4.75 -7.65 -2.45 0 -7.50 9.50 -9.85 18.40 -1 3.70 -3.60 18.20 -4.25 23.35 -0.15 1.40 -0.60 4.75 -1 7.50 -4.30 28.85 -5.15 33.30 -8.15 43.75 -0.85 2.90 -2 7.15 -2.60 9.50 -0.60 2.35 -2.85 9.65 -5 16.25 -2.20 6.60 -5.10 16.30 -6.55 21.50 -1.40 5.25 -2.90 10.15 -3.30 10.95 -0.90 1.75 -0.65 2 3.55 2.80 1.70 0.30 6.10 1.30 9.80 2.25 31.95 7.80 67.05 19.15 92.75 29.85 23.55 9.85 46.85 21.85 59.75 30.80 10.85 7.55 19.50 17.05 22.60 24.85 1.40 3.50 1.60 4.75 1.80 10.15 0.35 9.50 -0.50 12.70 -7.40 27.60 -1.95 4.25 -4.55 9.90 -5.75 12.50 -5.20 11.25 -11.40 30.30 -18.50 57 -1.30 4.80 -3.40 12.15 -4.75 16.25 -1.30 4.15 -2.85 9.65 -3.40 12.25 -3.60 16.30 -4.75 22.15 -5.85 29.50 -0.65 4.55 -1.70 11.20 -2.25 14.75 -2.60 16.55 -3.85 28.65 -4.50 44.25 -0.75 17.40 -0.65 24.65 0.45 29.75 1.55 6.95 2.10 16.25 1.95 31.25 -0.15 13.25 -0.10 13.85 0.95 16.50 2.55 6.20 6.70 8.90 15.90 10.25 4.50 0.70 6.45 1.25 10.50 3.15 l5 2.35 92.75 0.25 c51 0.15 93.05 0.45 93.40 0.65 0.75 0.50 0.80 4.45 0 5.25 -0.45 0.45 -22.15 0.60 -94.50 0.60 l-93.85 0 -0.55 1.05 c-1.15 2.05 -3.30 2.45 -13.60 2.45 -5.30 0 -13 -0.25 -17.15 -0.55 -4.10 -0.25 -17.30 -0.70 -29.25 -1 -11.95 -0.25 -24.10 -0.65 -27 -0.90 -4.90 -0.45 -250.85 -0.90 -390.70 -0.75 l-62.50 0.10 -0.65 1.90 c-1.10 3.30 -2 3.70 -8.40 3.70 l-5.70 0 -1.70 -1.65z m9.45 -7.70 c1.65 -3.20 4.95 -5.85 9.45 -7.60 l2.50 -0.95 -4.75 -0.20 c-5.35 -0.15 -7.40 0.35 -9.60 2.45 -1.85 1.70 -3.50 5.25 -3.10 6.50 0.60 1.55 1.80 2.65 2.95 2.65 0.85 0 1.45 -0.70 2.55 -2.85z m537.30 -1.45 c-0.95 -0.40 -4.25 -1.05 -7.35 -1.45 -6.95 -0.85 -10.15 -2.25 -13.45 -5.75 -3.05 -3.25 -4.70 -6.90 -5.30 -11.80 -0.25 -2.20 -0.45 -10.70 -0.40 -18.95 0.15 -14.15 0.05 -15.40 -1.10 -21.75 -1.15 -6.25 -1.25 -7.80 -1.20 -21.10 0.05 -7.85 0.20 -17.10 0.35 -20.50 l0.30 -6.15 -1.45 8.50 c-0.80 4.70 -1.85 11.10 -2.25 14.25 -0.40 3.15 -1.20 8.25 -1.70 11.25 -0.55 3.05 -1.35 7.75 -1.80 10.50 -0.50 2.75 -1.75 10.05 -2.85 16.25 -4.90 27.75 -5.45 33.80 -3.50 37.25 1.25 2.20 5.50 5.25 9.45 6.75 5.85 2.20 13.90 3.10 31.15 3.35 l2.75 0.05 -1.65 -0.70z m-46.30 -1.80 c-0.65 -0.90 -4.20 -7.60 -7.80 -14.90 -7.45 -14.95 -9.70 -19 -12.95 -23.20 -3 -3.80 -5.40 -5.40 -11.95 -7.85 -7.80 -2.95 -10.95 -4.75 -14.75 -8.50 -2.45 -2.45 -3.85 -4.40 -5.25 -7.25 -1.85 -3.90 -1.85 -4 -1.85 -10.20 0 -5.40 0.15 -6.70 1.20 -9.50 1.65 -4.35 6.05 -8.70 12.80 -12.70 7.45 -4.45 10.05 -6.55 11.75 -9.60 2.95 -5.10 5.75 -15.45 7.05 -25.90 1.50 -12.40 -1 -34.85 -6.55 -58.55 -3.85 -16.40 -4.20 -18.95 -4.20 -29 0.05 -14.60 2.55 -24.40 10.20 -39.75 6.35 -12.75 11.20 -20.50 17.50 -27.95 2.60 -3.05 3.40 -4.30 2.90 -4.60 -1.75 -0.95 -9.05 -1.95 -14.35 -1.95 -6.70 0 -23.10 1.40 -38.30 3.25 -9.10 1.10 -35.90 1.60 -44.45 0.80 -7.85 -0.75 -22.15 -2.80 -27.05 -3.85 -8.80 -1.95 -26.30 -7.45 -34.45 -10.80 -1.90 -0.75 -3.70 -1.40 -4.05 -1.40 -0.35 0 -2.15 2.10 -4.05 4.70 -14.65 19.95 -44.15 44.50 -70.45 58.55 -2.45 1.30 -5.40 2.90 -6.50 3.50 -2.25 1.20 -16.75 7.65 -20.25 9 -2.75 1.05 -16.45 5.85 -25 8.75 -3.45 1.15 -8.55 3.05 -11.35 4.25 -5.30 2.30 -12.05 6.35 -12.55 7.65 -1 2.65 11.20 5.05 21 4.10 9.65 -0.95 23.85 -4.30 32.40 -7.60 22.85 -8.90 45.30 -21.60 62.50 -35.35 15.25 -12.15 29.95 -26.80 43.80 -43.55 4.55 -5.50 4.70 -5.60 7.30 -5.40 l2.15 0.15 0.15 2.35 c0.20 3.10 -0.85 4.90 -7.55 12.95 -12.70 15.25 -24.90 27 -42 40.40 -5.15 4.05 -15.60 11.25 -19.70 13.60 -0.75 0.45 -3.10 1.90 -5.15 3.20 -2.05 1.30 -8.85 4.95 -15.10 8.10 -11.35 5.80 -11.40 5.80 -11.40 7.45 0 2.50 -0.25 2.85 -5.15 7.05 -14.30 12.30 -23.50 18.30 -32.35 21.10 -24.05 7.60 -24.20 7.70 -45.50 28.30 -4 3.90 -10.60 10.05 -14.75 13.75 -4.10 3.70 -8.95 8.10 -10.75 9.80 -1.80 1.70 -4.95 4.50 -7 6.20 -2.05 1.75 -4.90 4.15 -6.25 5.45 -1.40 1.25 -3.75 3.40 -5.25 4.75 -11.70 10.35 -22.50 21.15 -30.20 30.05 -7.75 8.95 -9.60 11.60 -13.75 19.60 -4.45 8.65 -8.95 14.75 -23.05 31.25 -2.60 3.10 -6.10 7.20 -7.70 9.10 -9.85 11.80 -13.30 14.75 -21.55 18.50 l-5 2.30 68.50 0 c157.35 0.10 394 0.55 394.20 0.75 0.10 0.15 3.10 0.25 6.65 0.25 l6.45 0 -1.25 -1.60z m-477.35 -12.95 c4.65 -2.10 7.80 -5.75 14.45 -16.85 5.30 -8.75 15.15 -28.85 25.85 -52.85 1.70 -3.85 4.50 -9.80 6.10 -13.25 1.65 -3.45 4.40 -9.15 6.10 -12.70 1.70 -3.55 3 -6.50 2.90 -6.65 -0.10 -0.10 -0.80 0.60 -1.50 1.50 -2.45 3.25 -9.70 10.80 -12.40 13 -3.90 3.15 -6.15 4.30 -10.40 5.40 -4.50 1.15 -7.75 1.20 -14.45 0.20 -2.80 -0.45 -5.70 -0.60 -6.45 -0.45 -4.45 1.10 -8.65 6.80 -8.65 11.80 0 3.65 1.30 9.15 3.75 16.15 2.95 8.30 3.75 11.95 3.75 17.15 0 8.85 -2.75 14.55 -9.35 19.40 -5.15 3.75 -7 5.55 -8.30 7.95 -2 3.85 -0.95 10.35 1.75 10.90 2.60 0.50 4.75 0.25 6.85 -0.70z m20.85 -9.20 c1.15 -1.40 4.50 -5.40 7.45 -9 2.95 -3.55 7 -8.40 9 -10.75 8.60 -10 12.60 -15.65 16.05 -22.60 1.30 -2.55 3.35 -6.20 4.55 -8.10 7.35 -11.40 23.70 -28.60 45.90 -48.30 5.70 -5.10 12.90 -11.50 15.90 -14.25 3.05 -2.75 6.65 -6 8.05 -7.20 1.40 -1.20 6.05 -5.50 10.30 -9.55 4.25 -4.05 9.35 -8.80 11.25 -10.60 12.15 -11.35 19 -15.80 28.50 -18.65 9.85 -2.95 12.70 -3.95 17.10 -6 6.75 -3.20 14.40 -8.35 22.90 -15.45 l1.50 -1.25 -5 1.50 c-17.85 5.40 -32.80 7.35 -45.25 6 -6 -0.65 -10.70 -2.55 -12.50 -5.05 -2.55 -3.55 -1.60 -8.90 2.20 -12.40 4.35 -4 8.90 -6.05 30.05 -13.40 17.60 -6.15 25.65 -9.40 36 -14.50 8.75 -4.30 13.15 -6.65 17.50 -9.45 1.40 -0.85 4.40 -2.80 6.75 -4.25 2.35 -1.50 4.80 -3.15 5.50 -3.65 0.70 -0.50 2.70 -1.95 4.50 -3.25 12.65 -9.20 26.55 -21.75 36.65 -33.10 6.50 -7.25 9.20 -10.80 8.65 -11.35 -0.15 -0.20 -3.30 -0.50 -6.95 -0.75 -6 -0.40 -13.55 -1.70 -25.60 -4.40 -14.05 -3.20 -21.05 -3.55 -27.25 -1.50 -8.40 2.75 -19.55 12.60 -33.10 29.25 -1.75 2.20 -3.90 4.70 -4.70 5.50 -1.90 2 -5.30 6.20 -15.15 18.75 -8.55 10.85 -10.65 13.80 -18.60 25.75 -2.70 4.15 -5.55 8.30 -6.30 9.25 -4.80 6.10 -7.65 9.40 -12.65 14.65 -5.60 5.85 -5.60 5.85 -7.95 5.85 -2.85 0 -3.55 -0.60 -3.55 -3.15 0 -1.85 0.40 -2.45 5.05 -7.40 2.75 -3 4.95 -5.45 4.85 -5.45 -0.15 0 -2.55 1.30 -5.45 2.90 -2.85 1.60 -9.70 5.25 -15.20 8.05 -20.30 10.50 -31.65 19.75 -40.65 33.10 -2.20 3.25 -8.95 16.95 -8.40 16.95 0.10 0 1.55 -1.65 3.20 -3.60 3.85 -4.65 12.60 -12.50 18.80 -16.95 2.65 -1.90 4.90 -3.45 5 -3.45 0.15 0 1.10 -0.60 2.15 -1.30 2.85 -1.95 12.90 -6.90 19.15 -9.45 6.80 -2.75 10.75 -3.60 13.35 -2.95 1.85 0.45 1.90 0.55 2.05 2.80 0.15 2.15 0.05 2.40 -1.35 3.10 -0.80 0.45 -1.90 0.80 -2.45 0.80 -1.45 0 -13.25 4.90 -19.10 7.90 -20.50 10.60 -35.25 25.40 -50.70 51 -5.70 9.40 -16.30 30.55 -23.80 47.40 -3.10 6.95 -12.30 27.10 -16.90 36.90 -4.55 9.75 -13.70 26.10 -17.40 31.05 l-2.25 3 3.15 -3.25 c1.75 -1.80 4.10 -4.40 5.20 -5.75z m455.45 -6.75 c0.45 -3.70 1.70 -12.05 2.80 -18.50 1.05 -6.45 1.95 -12.10 1.95 -12.55 0 -0.55 -2.35 -1.50 -8.90 -3.60 -14.60 -4.65 -18.60 -8.20 -18 -16 0.30 -3.55 1.50 -6.60 5.20 -13.35 6.15 -11.15 14.15 -32.50 19.90 -53 1.50 -5.35 3.30 -11.75 4.05 -14.25 14.10 -47.05 24.30 -89.25 26.25 -108.50 1.35 -12.75 -0.80 -21.90 -5.85 -25.40 -1.10 -0.75 -2.55 -1.35 -3.25 -1.35 -1.65 0 -5.40 1.60 -8.50 3.60 -2.25 1.40 -2.35 1.55 -1.65 2.55 1.10 1.60 1 6.95 -0.25 9.30 -0.55 1.10 -2.40 3.25 -4.10 4.85 -1.75 1.65 -3.80 3.70 -4.65 4.65 -0.80 0.95 -2.45 2.75 -3.55 4 -6.60 7.35 -14.30 20.40 -17.35 29.55 -2.80 8.25 -3.60 16.80 -2.35 25.35 0.50 3.55 3.60 17.20 7 30.65 3.45 13.60 3.75 15.90 3.70 29 0 8.65 -0.25 13.20 -0.90 17.25 -1.20 7.45 -3.05 15.65 -4.65 20.50 -2.80 8.55 -9.75 20.65 -17.30 30.10 -2.85 3.60 -5.85 7.80 -6.60 9.35 l-1.40 2.85 1.45 3.10 c1.15 2.40 3 4.70 8.45 10.30 7.80 8 9.70 9.45 14.80 11.60 3.85 1.55 9.65 5.40 10.15 6.70 0.40 1.05 0.40 3.95 0 4.95 -0.20 0.55 -0.95 0.80 -2.50 0.80 -1.20 0 -2.20 0.05 -2.20 0.15 0 0.10 1 1.90 2.20 4.05 1.20 2.15 2.70 5.10 3.35 6.65 0.70 1.75 1.25 2.50 1.45 2.05 0.20 -0.35 0.75 -3.70 1.25 -7.40z m-40.40 -31.60 c-3.70 -5 -4.50 -7.30 -4.30 -12.50 0.20 -3.90 0.35 -4.40 2.30 -7.55 2.30 -3.65 1.65 -3.85 -1.45 -0.45 -5.20 5.75 -4.20 13.50 2.70 20.90 1.65 1.75 3.10 3.20 3.20 3.20 0.15 0 -1 -1.65 -2.45 -3.60z m47.15 -7.75 c0 -1.80 1.95 -16 3.75 -27.15 1.20 -7.55 2.90 -18.15 3.75 -23.50 1.75 -10.85 4 -21.40 9.85 -45.50 0.40 -1.80 2 -7.75 3.50 -13.25 2.90 -10.50 6.40 -26.25 8.40 -38 0.65 -3.85 2.35 -12.50 3.75 -19.25 1.40 -6.75 3.85 -18.75 5.50 -26.75 1.60 -7.95 3.40 -16.50 3.95 -19 1.65 -7.45 2.35 -15.60 1.70 -19.80 -2 -12.85 -13.50 -23.15 -32.90 -29.45 -11.40 -3.65 -18.55 -5.25 -32.75 -7.05 -10.15 -1.35 -34.40 -1.80 -47.50 -1 -18.20 1.20 -38.20 4.70 -56 9.85 -14.80 4.25 -23.85 8.05 -36.15 15.10 -5.70 3.30 -6 2.75 3.50 6.30 11.35 4.20 19.75 6.60 33.90 9.55 14.05 2.95 20.05 3.50 37 3.45 14.65 -0.05 21.45 -0.45 37.25 -2.45 9.70 -1.20 24.45 -1.90 32.30 -1.60 7.30 0.30 11.10 1 14.80 2.65 l1.80 0.80 2.40 -1.80 c7.55 -5.75 17.85 -7.50 23.50 -4 1.35 0.80 2.95 2.20 3.55 3.10 2.95 4.45 4.50 14.50 3.90 25.85 -0.30 6.70 -2.60 23.30 -4.20 30.75 -3.15 14.85 -8.75 37.45 -12.35 50 -0.95 3.45 -3.80 13.45 -6.25 22.25 -2.50 8.80 -5.40 18.80 -6.45 22.25 -1.10 3.45 -3.20 10.65 -4.75 16 -3.80 13.10 -8.90 25.95 -17 42.75 -4.50 9.40 -4.35 8.85 -3.10 10.40 1.75 2.10 7.65 4.95 14.35 6.95 6.90 2.05 7 2.05 7 1.55z m-20.65 -85.75 c-0.30 -7.65 -1 -12.90 -2.60 -20.10 -1.30 -5.85 -1.45 -4.15 -0.25 2.80 1.35 7.85 2.50 17.75 2.50 21.80 0 1.70 0.15 3.10 0.35 3.10 0.15 0 0.15 -3.45 0 -7.60z m-11 -65.75 c-0.10 -1.35 -0.15 -0.25 -0.15 2.35 0 2.60 0.05 3.70 0.15 2.40 0.10 -1.35 0.10 -3.45 0 -4.75z m82.10 -49.80 c0.85 -2.10 3.75 -8.55 6.50 -14.25 5.65 -11.80 7 -15.50 7.40 -20.10 0.40 -5.05 -1.55 -11 -5.65 -16.75 -2.70 -3.85 -9.30 -10.25 -14.70 -14.20 -13.70 -10.15 -47.20 -26.90 -73.05 -36.55 -2.15 -0.85 -5.80 -2.20 -8.05 -3.05 -13.85 -5.20 -50.05 -16.65 -61.40 -19.40 -2.35 -0.55 -8.05 -1.90 -12.75 -3.05 -21.80 -5.15 -30.70 -8.05 -36.35 -11.75 -1.70 -1.15 -1.90 -1.50 -1.90 -3.40 0 -2.75 0.65 -3.35 3.60 -3.35 1.90 0 3.20 0.45 5.80 1.90 3.65 2.05 7.20 3.75 9 4.30 1.35 0.45 1.35 0.70 0.35 -8.75 -2.05 -19.70 -6.35 -32.20 -15 -43.65 -5.35 -7.10 -13.10 -13.95 -18.55 -16.35 -2.80 -1.25 -2.70 -1.30 -5.25 3.70 -1.50 2.95 -10.45 16.60 -25.60 39 -13.65 20.20 -19.05 29.50 -23.50 40.65 -5.10 12.65 -5.90 20.85 -2.85 29.95 2 6.20 4.20 10.85 7.50 16 5.05 8 15.60 18.65 24.90 25.10 6.05 4.25 14.10 9.15 15 9.15 0.40 0 3 -1.40 5.80 -3.10 2.75 -1.70 8.65 -4.95 13.05 -7.15 14.85 -7.60 38.50 -14.30 60.75 -17.25 2.35 -0.30 5.70 -0.75 7.50 -1 12.85 -1.80 49.90 -2.40 63.25 -1.10 19.70 1.95 32.55 4.75 45.35 9.90 12.45 4.95 21.05 11.80 25.30 20 3.20 6.20 3.80 9.15 3.75 17.95 -0.05 8.70 -0.55 12.05 -5.45 35.70 -1.20 5.85 -2.20 10.80 -2.15 11 0 0.15 1.30 -3.40 2.90 -7.95 1.60 -4.55 3.60 -10 4.50 -12.15z m-50.10 -15.25 c-0.50 -0.60 -0.85 -0.40 -2.25 1.20 -0.95 1.10 -2.80 3.55 -4.20 5.45 l-2.50 3.50 4.75 -4.70 c3.95 -3.90 4.70 -4.85 4.20 -5.45z m-268.15 -15.50 c6.85 -7.75 13.35 -13.45 18.80 -16.50 5.15 -2.85 10.45 -4.15 18.30 -4.45 l7.10 -0.30 -3.70 -3.70 c-3.85 -3.85 -9.25 -10.80 -10.60 -13.50 l-0.80 -1.65 -0.90 3.60 c-0.50 2 -1.60 4.80 -2.50 6.25 -1.60 2.60 -11.65 14.25 -21.15 24.40 -2.80 3 -6.85 7.65 -9 10.25 -4.30 5.30 -2.95 3.95 4.45 -4.40z m75.30 -16.50 c-8.55 -5.85 -19.65 -16.30 -24.75 -23.25 -3.65 -5 -8.80 -15.30 -10.60 -21.10 -1.25 -4.20 -1.35 -5.10 -1.35 -13 0 -9.45 0.95 -15.05 3.70 -22.90 1.55 -4.45 6.90 -15.60 9.85 -20.60 6.50 -10.90 11.40 -18.50 19.80 -30.50 3.85 -5.50 7.75 -11 8.60 -12.25 2.65 -3.80 9.55 -14.20 9.95 -15 0.20 -0.40 -0.40 0.05 -1.30 1.05 -0.90 1 -4.60 5.05 -8.20 9 -3.60 3.95 -8.55 9.45 -11 12.25 -2.45 2.80 -6.65 7.50 -9.40 10.50 -6.35 6.95 -16.60 19.75 -20.10 25.10 -5.85 8.90 -10.65 18.85 -12.55 26 -1.10 4.20 -1.30 5.95 -1.30 13.10 -0.10 9.25 0.55 13.05 3.45 21.90 3.70 11.05 8.35 18.40 16.95 26.75 5.10 5 9.65 7.95 16.05 10.50 4.15 1.65 10.20 3.25 12.45 3.30 0.90 0 0.90 -0.10 -0.25 -0.85z m76.45 -127.10 c2.25 -7.30 4.70 -14.95 5.40 -17 1.40 -4.30 5.10 -18.90 6.60 -26.25 1.50 -7.60 2.85 -15.95 4.30 -27 2.85 -21.70 4.10 -28.35 7.10 -36.95 2.40 -6.95 4.20 -10.25 6.80 -12.65 3.10 -2.85 7.65 -3.95 11.05 -2.70 1.15 0.45 0.95 -0.10 -2.45 -7.10 -2.95 -6.15 -4.30 -9.75 -7 -19.05 -3.85 -13.30 -5.65 -18.10 -10.10 -27.05 -3.65 -7.35 -7.45 -13.35 -11.65 -18.50 -3.60 -4.40 -4 -5.20 -4 -7.70 0 -2 -0.05 -2.05 -1.75 -2.05 -1.45 0 -2.30 -0.50 -4.90 -2.90 -3.50 -3.25 -11.50 -8.40 -18.15 -11.75 -9.35 -4.65 -19.80 -7.10 -34.95 -8.10 -8.25 -0.55 -14.70 -1.65 -28.25 -4.70 -5.70 -1.30 -13.65 -3.55 -14.15 -4 -0.55 -0.55 -7.55 0.30 -12.10 1.50 -9.25 2.35 -21.45 8.55 -29.45 14.95 -4.20 3.35 -13.05 12.45 -18.30 18.75 -2.05 2.50 -5.20 6.05 -7 7.95 -1.80 1.90 -2.80 3.20 -2.25 2.95 1.95 -1 12.05 -4.15 16.50 -5.10 7.65 -1.70 13.20 -2.25 21.20 -2.20 11 0.10 16.20 1.15 26.70 5.55 l5.60 2.35 7.90 -0.15 c5.55 -0.10 8.15 0.05 8.65 0.45 1.10 0.90 0.95 5.25 -0.30 6.10 -0.90 0.60 -0.55 0.90 4.65 3.85 3.10 1.75 6.50 3.75 7.60 4.50 5.15 3.45 20.15 12.20 25.70 15 10.80 5.40 17.35 7.40 26.30 7.95 l5 0.30 0.15 2.40 c0.25 3.55 -0.20 3.85 -5.85 3.85 -2.65 0 -6.30 -0.25 -8.15 -0.50 -8.35 -1.20 -21.50 -6.85 -34.40 -14.75 -21.50 -13.15 -27.75 -16.65 -33.25 -18.50 -3 -1 -14.05 -1.15 -18.55 -0.25 -2.90 0.55 -10.70 3.85 -10.70 4.50 0 0.15 1.35 0.60 2.95 0.90 7.45 1.55 15.95 7.80 24.60 18.20 6.35 7.55 7.20 8.75 20.10 28 18.65 27.90 25.45 40.65 27.55 51.90 1.75 9.05 0.55 24.15 -2.55 32.35 -0.15 0.35 1.35 1.30 3.50 2.30 4.95 2.30 7.85 4.30 12.30 8.55 6.75 6.50 13.25 15.85 16.60 23.90 3.15 7.50 5.85 19.30 6.70 29.15 0.65 7.70 0.75 7.65 2.75 -0.50 1.05 -4.10 3.70 -13.45 5.95 -20.75z m38.85 -26.75 c1.90 -5.40 7.65 -23.95 9 -29.10 3 -11.60 5.50 -30.10 4.95 -36.40 -0.35 -3.60 -1.80 -11.10 -2.65 -13.20 -0.30 -0.90 -0.50 0.55 -0.75 5.50 -0.60 13.30 -3.85 31.05 -11.35 61.70 -1.35 5.50 -3.15 13.15 -4 17 -0.85 3.85 -2.10 9.30 -2.75 12.10 -0.70 2.85 -1.25 5.40 -1.25 5.75 0.05 0.55 4.65 -11.75 8.80 -23.35z m-465.80 -13.75 c1 -0.30 1.05 -0.40 0.25 -0.40 -0.55 0 -1.45 0.15 -2 0.40 -1.25 0.55 0.05 0.55 1.75 0z m35.80 -1.20 c1.10 -0.40 3.55 -1.55 5.45 -2.65 1.95 -1.05 4.75 -2.45 6.25 -3.10 7.45 -3.15 12.30 -5.85 16.85 -9.40 5.20 -4.05 17.35 -14.65 16.80 -14.65 -1 0 -14.45 2.75 -17.40 3.55 -8.10 2.20 -13.35 6 -20.50 14.95 -4.40 5.45 -6.25 6.50 -12.95 7.25 -2.30 0.25 -2.95 0.55 -3.15 1.30 -0.20 0.65 -0.70 0.95 -1.85 0.95 -2.05 0.05 -0.90 0.70 2.80 1.70 3.45 0.95 5.30 0.95 7.70 0.10z m337.60 -7.15 c4.60 -14.50 4 -21.80 -2.90 -36 -4.40 -9.10 -10.10 -19.05 -16.80 -29.30 -5.70 -8.75 -15.15 -22.35 -15.50 -22.35 -0.10 0 2.75 5.90 6.35 13.10 11.70 23.35 17.15 35.20 20.35 44.40 2.75 7.90 2.90 8.50 4.15 15 0.90 4.85 1.05 7 0.85 13.65 -0.20 7.20 -0.15 7.85 0.65 7.85 0.65 0 1.30 -1.45 2.85 -6.35z m-354 2.35 c-1.30 -1.10 -3.50 -3.30 -4.90 -4.90 -2 -2.20 -2.35 -2.45 -1.55 -1.10 1.05 1.85 4.25 5.10 6.80 6.90 2.35 1.70 2.20 1.25 -0.35 -0.90z m-11.65 -0.20 c-1.15 -1.75 -12.25 -11.20 -15.90 -13.45 -1.50 -1 -3.85 -1.95 -3.85 -1.60 0 0.10 0.55 0.50 1.20 0.85 0.65 0.35 3.65 2.80 6.60 5.50 6.40 5.65 11.65 9.90 12.30 9.90 0.20 0 0.05 -0.55 -0.35 -1.20z m24.65 -6.90 c1.55 -0.70 3.50 -2.60 6.95 -6.75 5.60 -6.65 8.50 -9.15 13.40 -11.40 3.40 -1.60 11.10 -3.75 13.25 -3.75 1.70 0 0.55 -1.10 -4.20 -3.95 -4.75 -2.85 -6.30 -3.50 -13.05 -5.35 -12.25 -3.30 -15.05 -4.30 -22.35 -8.30 -7.20 -3.90 -10.90 -5.15 -11.60 -3.95 -0.55 0.85 1.95 2.95 7.15 6.05 8.55 5.10 12.25 8.80 13.55 13.50 1.30 4.55 0.25 11.45 -2.25 15.50 -1.50 2.35 -5.75 6.30 -7.95 7.35 -1.70 0.80 -1.75 0.85 -0.95 1.75 0.70 0.80 1.30 0.90 3.40 0.65 1.35 -0.20 3.45 -0.80 4.65 -1.35z m76.30 -18.90 c6.05 -2.25 20.55 -7.30 32.25 -11.25 39.70 -13.35 49.60 -17.45 63.90 -26.45 3.15 -1.95 7.05 -4.35 8.70 -5.35 1.65 -1 3.40 -2.15 3.85 -2.60 0.75 -0.80 0.70 -0.85 -1.05 -0.85 -1.85 0 -17.50 1.95 -24.15 3 -10.15 1.60 -23.35 5.80 -37.45 11.85 -8.75 3.75 -32.35 15.40 -41.05 20.25 -5.85 3.25 -18.25 9 -20.80 9.65 -1.05 0.30 -1.30 0.70 -1.55 2.50 -0.20 2.20 -1.40 3.60 -6.85 8.15 -0.70 0.60 -1.90 1.65 -2.75 2.30 -0.95 0.80 1.75 -0.25 7.25 -2.90 4.80 -2.30 13.70 -6.05 19.70 -8.30z m-31.30 -5.25 c12.95 -2.80 16.15 -4.15 44.60 -18.85 25.20 -13.05 43.65 -20.60 58.50 -24.10 6.25 -1.45 10.25 -2.10 19.65 -3.05 12 -1.25 12.55 -1.35 13.35 -2.25 0.40 -0.45 3.65 -2.85 7.15 -5.30 9.75 -6.80 12.25 -8.65 17.30 -12.70 2.60 -2.05 5.80 -4.55 7.15 -5.60 1.30 -1 3.95 -3 5.80 -4.50 1.85 -1.50 3.90 -3.10 4.60 -3.55 11.70 -8.10 24.50 -14.40 33.25 -16.35 1.10 -0.25 4 -1.55 6.45 -2.95 8.70 -4.85 18.10 -8.55 21.90 -8.55 3.90 0 0.15 -1.95 -7.35 -3.85 -2.60 -0.65 -5.50 -0.85 -11.25 -0.85 -9.25 0 -15.20 1.05 -25.30 4.45 -8.50 2.85 -12.10 4.55 -22.20 10.25 -14.45 8.20 -15.15 8.70 -30.70 22.75 -7.30 6.60 -9.25 8.10 -14.30 11.15 -7.90 4.80 -14.90 7.25 -18.20 6.40 -1.20 -0.30 -1.30 -0.55 -1.30 -2.80 0 -2.75 0.60 -3.35 4.25 -4.50 4.75 -1.45 12.20 -5.55 16.25 -9 1.25 -1 1.25 -1 -1.50 0.05 -1.50 0.60 -6.25 2.30 -10.50 3.70 -12.65 4.25 -23.70 9.25 -32.35 14.60 -5.15 3.20 -15.90 11.10 -23.40 17.15 -10.40 8.40 -26.45 19.55 -35.85 24.90 -10.90 6.25 -16.25 8 -25.75 8.45 l-6.05 0.30 -0.20 2.90 c-0.10 1.65 -0.10 2.95 0 2.95 0.05 0 2.75 -0.55 6 -1.25z m406.85 -31.85 c-1.80 -11.60 -3.85 -17.10 -8.15 -21.60 -1.60 -1.70 -3.60 -3.95 -4.50 -5.05 -2.25 -2.75 -1.70 -1.50 4.30 10.50 5.50 11.05 7.20 15.05 8.15 19.45 1 4.50 1.10 2.45 0.20 -3.30z m2.35 -30.35 c1.55 -3.55 1.65 -4.15 1.60 -9.30 -0.05 -5.30 -0.90 -10 -3.85 -20.75 -0.35 -1.40 -0.55 -5.25 -0.50 -10.25 0.05 -8.30 0.85 -12.85 3.45 -19.45 l0.95 -2.40 -4.30 -4.10 c-6.45 -6.20 -12.45 -8.95 -22.20 -10.30 -3.25 -0.45 -26.85 -1.60 -27.05 -1.35 -0.05 0.05 0.80 2.35 1.85 5.10 1.20 3.15 1.90 5.70 1.85 6.90 -0.10 1.60 0.20 2.20 2.45 4.50 1.40 1.40 3.90 4.65 5.55 7.20 9.20 13.75 11.95 20.15 20.15 46.15 1.45 4.60 2.20 6.35 2.35 5.50 0.30 -2 1.05 -2.50 3.55 -2.50 2.55 0 3.75 0.90 6.80 5.25 0.80 1.10 2.15 2.75 2.95 3.65 1.85 1.95 1.95 1.90 4.40 -3.85z m-235.25 -4.20 c1.05 -0.75 3.20 -2.30 4.80 -3.40 2.70 -1.85 9.05 -7.05 10.85 -8.85 0.65 -0.65 0.65 -0.70 0 -0.30 -1.40 0.75 -5.75 3.90 -10.25 7.45 -2.45 1.95 -6.20 4.80 -8.25 6.35 -7.90 6 -5.80 5.10 2.85 -1.25z m14.05 1.75 c6.35 -3.10 14.50 -7.50 16.20 -8.65 0.70 -0.55 1.45 -0.95 1.60 -0.95 1.05 0 21.35 -14.75 20.95 -15.20 -0.20 -0.15 -2.20 -0.30 -4.50 -0.30 -3.20 0 -4.65 0.25 -6.15 1 -2.25 1.15 -14.05 10.05 -24.85 18.75 -4.10 3.30 -8.25 6.60 -9.15 7.35 -1.65 1.30 -1.65 1.35 -0.35 0.90 0.75 -0.25 3.55 -1.55 6.25 -2.90z m249.25 -31.65 c5.20 -1.05 9.60 -2.05 9.75 -2.15 0.10 -0.15 -0.45 -0.40 -1.20 -0.60 -8.05 -1.80 -10.65 -2.65 -15.10 -4.90 -3.70 -1.90 -8.05 -5.40 -10.35 -8.40 l-1.50 -1.95 -0.35 2 c-0.85 4.90 -1.40 11.95 -1.10 13.90 0.15 1.20 0.80 2.75 1.35 3.45 1 1.30 1.10 1.30 5 0.95 2.20 -0.20 8.25 -1.20 13.50 -2.30z m28.60 -9 c9.65 -1.30 24.50 -5.80 33 -10 5.95 -2.90 10.10 -5.70 19.55 -13.25 6.05 -4.80 10.45 -7.80 17.45 -11.85 12.85 -7.40 28.55 -18.05 38.75 -26.30 5.80 -4.65 20.65 -19.40 30.70 -30.55 10.25 -11.30 18.40 -19.25 22.85 -22.30 2.05 -1.40 6.75 -4.20 10.45 -6.20 8.70 -4.70 10.15 -5.65 13.15 -8.45 3.80 -3.55 9.75 -10.30 8.50 -9.60 -0.65 0.30 -4.60 1.25 -8.75 2.10 -15 2.95 -26.05 6.10 -30.90 8.85 -3.95 2.20 -8.45 6.10 -11.60 10.05 -4.45 5.55 -8.55 9.65 -13.75 13.80 -5.80 4.70 -22.50 16 -30.65 20.75 -21.65 12.70 -28.55 17.25 -37.90 24.95 -3.65 3 -7.65 6.10 -8.90 6.80 -4.40 2.55 -5.90 2.80 -22.70 3.25 -19.20 0.50 -24.60 1.30 -38.20 5.50 -10.35 3.15 -18.70 7.15 -24.80 11.80 -3.45 2.60 -10.30 9.70 -10.75 11.15 -0.45 1.55 3.50 6.90 7.65 10.35 3.65 3.05 9.25 6.10 13.60 7.45 6.85 2.10 15.80 2.75 23.25 1.70z m-39.10 -35.70 c3 -2.15 4.60 -3.60 4.20 -3.80 -1.15 -0.65 -9.10 -2.45 -12.85 -2.95 -8.35 -1.05 -22.30 -0.35 -29.20 1.55 l-2.05 0.60 4.50 0.90 c8.20 1.65 15.55 5.50 21.70 11.25 l2.80 2.65 3.05 -3.35 c1.70 -1.85 5.25 -4.90 7.85 -6.85z m112.60 7.50 l1 -0.80 -1 0.50 c-0.55 0.25 -1.45 0.85 -2 1.30 l-1 0.80 1 -0.50 c0.55 -0.25 1.45 -0.85 2 -1.30z m-190.25 -8.70 c0 -0.25 -0.45 -0.95 -1.05 -1.60 l-1 -1.20 0.85 1.65 c0.95 1.65 1.20 1.90 1.20 1.15z m-12.05 -7.85 c-2.30 -7.10 -5.25 -19.25 -7.70 -31.65 -1.25 -6.40 -2.70 -13.40 -3.25 -15.50 -1.90 -7.30 -5.55 -17.85 -8 -23 -2.60 -5.35 -3.25 -9.10 -1.90 -10.45 0.35 -0.35 1.85 -0.60 3.40 -0.60 l2.75 0 2.75 3.15 c1.55 1.70 3.65 4.15 4.70 5.45 2.80 3.50 8.75 6.50 14.05 7.15 2.40 0.30 4.95 0.10 15.50 -1.45 2.75 -0.40 7.15 -1 9.75 -1.35 4.05 -0.55 9 -2 9 -2.70 0 -0.10 -1.25 -1.50 -2.75 -3.05 l-2.75 -2.90 0 -3.35 c0 -4.30 -0.25 -4.95 -2 -4.95 -2.50 0 -3 -0.45 -3 -2.75 0 -1.40 0.35 -2.55 1.10 -3.50 l1.10 -1.40 -1.60 -1.30 c-1.45 -1.20 -1.60 -1.55 -1.60 -4.15 0 -2.30 0.25 -3.10 1.30 -4.35 0.70 -0.85 1.70 -1.55 2.15 -1.55 0.45 0 1.25 -0.30 1.75 -0.65 0.75 -0.55 0.05 -1.05 -6.05 -4.05 -8.10 -3.95 -15.50 -8.25 -16.80 -9.70 -0.50 -0.55 -1.10 -2.25 -1.30 -3.75 -0.70 -5.05 -4.60 -9.65 -12.80 -15.10 -8 -5.35 -15.70 -8.10 -24 -8.60 -6.20 -0.35 -10.65 0.30 -17.60 2.65 -9.85 3.30 -16.70 7.40 -23.10 13.80 -16.15 16.25 -18.30 35.85 -5.85 52.75 3 4.10 6.95 8 12.85 12.75 6.05 4.80 9.70 8.85 11.20 12.20 1.85 4.15 2.90 10.35 2.55 14.55 -0.95 11.70 -4.80 19.10 -12.40 23.85 -2 1.20 -4.25 2.40 -5.05 2.55 -0.75 0.20 -1.45 0.50 -1.55 0.70 -0.25 0.35 11.75 3.05 19.20 4.30 2.35 0.40 6.10 0.75 8.40 0.75 12.35 0 26 3.10 35.60 8.05 1.50 0.75 2.90 1.40 3.05 1.45 0.15 0 -0.35 -1.95 -1.10 -4.30z m7 -3.50 c-0.30 -1.35 -0.60 -5.50 -0.55 -9.25 0 -5.90 0.20 -7.70 1.50 -13 2.25 -9.20 2.25 -9.25 2.15 -15.45 -0.10 -7.75 0.50 -10.35 3.05 -13.20 1.10 -1.30 3 -2.90 4.20 -3.60 1.25 -0.75 2.15 -1.40 2.10 -1.50 -0.10 -0.05 -1.85 0.10 -3.90 0.40 -7.25 1 -16.70 -0.15 -21.65 -2.70 -1.10 -0.55 -2 -0.90 -2.10 -0.80 -0.10 0.10 0.40 1.85 1.05 3.90 2.20 6.70 4.20 15 6.50 26.75 2.60 13.40 4.20 20.10 6.30 26.60 1.60 4.95 2.35 5.95 1.35 1.85z m280.20 -89.40 c2.40 -1 6.95 -2.60 10.15 -3.50 3.20 -0.90 5.50 -1.75 5.10 -1.90 -0.35 -0.15 -2.20 -0.55 -4.05 -0.95 l-3.40 -0.65 -4.65 2.30 c-4.80 2.40 -7.45 4.30 -8.35 6.05 -0.45 0.80 -0.45 0.95 0.10 0.75 0.40 -0.15 2.65 -1.10 5.10 -2.10z m45.90 -11.05 l0.50 -1 -0.80 1 c-0.45 0.55 -1.05 1.45 -1.30 2 l-0.50 1 0.80 -1 c0.45 -0.55 1.05 -1.45 1.30 -2z m-7.65 -3.20 c0.40 -1.10 0.15 -2 -1.45 -5.05 l-1.90 -3.75 -0.05 6.45 0 6.50 1.50 -1.45 c0.80 -0.75 1.65 -2 1.90 -2.70z m17.55 1.25 c-0.05 -0.85 -0.10 -0.80 -0.45 0.30 -0.20 0.70 -0.55 1.60 -0.75 2 -0.15 0.35 0.05 0.20 0.45 -0.30 0.45 -0.55 0.80 -1.45 0.75 -2z m-51.25 0 c0.85 -0.30 0.90 -0.75 0.70 -4.95 -0.20 -3.35 -0.55 -5.15 -1.30 -6.70 -1.80 -3.45 -2.10 -3.15 -2.10 2.20 -0.05 2.95 -0.35 5.70 -0.75 6.90 -0.40 1.10 -0.75 2.50 -0.75 3.10 0 1.10 0.05 1.10 1.65 0.45 0.85 -0.40 2 -0.85 2.55 -1z m52.15 -8.65 c-0.10 -0.80 -0.20 -0.15 -0.20 1.35 0 1.50 0.10 2.15 0.20 1.40 0.10 -0.80 0.10 -2 0 -2.75z"/>
 </g>
 <g fill="#ffffff">
  <path d="M0 512 l0 -512 512 0 512 0 0 512 0 512 -512 0 -512 0 0 -512z m164.45 413.65 c0.55 -0.50 1.35 -1.80 1.70 -2.85 l0.70 -2 63.95 0 c166.90 -0.10 387.45 0.35 392.20 0.75 2.90 0.25 15.05 0.65 27 0.90 11.95 0.30 25.15 0.75 29.25 1 4.15 0.30 11.15 0.55 15.65 0.55 8.85 0 11.15 -0.50 12.10 -2.60 l0.55 -1.15 94.05 0 c90.20 0 94.05 -0.05 94.60 -0.90 1.45 -2.40 5 -2.30 -91.65 -2.35 -49.65 0 -91.65 -0.20 -93.35 -0.45 -1.75 -0.25 -4.55 -1.20 -6.70 -2.30 -2.90 -1.45 -5.10 -2.10 -10.30 -3 -9.80 -1.70 -13.30 -3.95 -15.85 -10.25 -1.05 -2.65 -1.10 -3.40 -1.15 -20.50 -0.05 -17.55 -0.25 -21.10 -1.95 -28.40 -0.90 -3.70 -0.95 -15.20 -0.25 -31.60 0.65 -15.60 1.90 -27.70 4.50 -44.25 0.55 -3.55 1.60 -10.20 2.25 -14.75 1.10 -7.35 2.25 -13.20 5.85 -29.50 0.55 -2.60 2.10 -8.10 3.40 -12.25 1.35 -4.10 3.45 -11.45 4.75 -16.25 7.10 -26.70 13.30 -45.75 18.50 -57 1.20 -2.60 3.80 -8.25 5.75 -12.50 6.65 -14.45 7.80 -18.45 7.40 -26.15 -0.50 -8.90 -5.05 -16.90 -14.70 -25.65 -8.85 -8.05 -19.80 -14.90 -40.20 -25.15 -22.85 -11.55 -41.05 -18.85 -70.75 -28.55 -23.60 -7.70 -42.40 -12.95 -63.10 -17.50 -2.85 -0.65 -5.15 -1.30 -5.15 -1.50 0 -0.20 0.55 -0.60 1.25 -0.90 1.80 -0.85 2.85 -3.40 5.70 -13.85 1.45 -5.20 4.35 -14.90 6.55 -21.50 2.15 -6.60 4.40 -13.90 5 -16.25 0.60 -2.35 1.75 -6.60 2.60 -9.50 3 -10.45 3.85 -14.90 8.15 -43.75 0.40 -2.75 0.85 -6.10 1 -7.50 0.65 -5.20 3.25 -19.65 4.25 -23.45 1.30 -4.80 2.90 -8.90 5.20 -13 1.95 -3.50 3.40 -4.95 5.65 -5.70 1.55 -0.50 1.70 -0.45 3.40 1.50 0.95 1.15 2.25 3.35 2.85 4.85 1.05 2.50 1.15 3.60 1.10 10.55 -0.05 9.80 -1.30 18.60 -4.85 34 -0.70 2.90 -2.05 8.85 -3.05 13.25 -1 4.40 -3.15 13.40 -4.80 20 -1.60 6.60 -3.65 15.50 -4.50 19.75 -0.85 4.25 -3.35 14.95 -5.50 23.75 -2.15 8.80 -4.25 18.35 -4.70 21.25 -0.40 2.90 -0.90 6 -1.10 6.90 -0.30 1.35 -0.20 1.60 0.65 1.60 0.75 0 1.65 -1.20 3.55 -4.60 5.30 -9.60 7.95 -16.20 17.85 -43.90 2 -5.65 4.70 -13.05 6 -16.50 3.90 -10.40 11.05 -30.50 12.15 -34.25 7.35 -24.65 8.95 -44.40 4.80 -60.10 -2.65 -10 -2.55 -8.90 -0.75 -10.45 1.85 -1.50 3.40 -4.40 5.10 -9.45 1.05 -3.10 1.20 -4.35 1.15 -11 -0.05 -6.55 -0.20 -8.10 -1.45 -12.50 -0.75 -2.75 -1.80 -6.55 -2.30 -8.50 -1.55 -5.75 -1.10 -16.50 0.85 -21.15 0.40 -0.95 0.80 -1.65 0.90 -1.55 0.10 0.10 -0.10 2.35 -0.50 4.95 -1.30 9.05 -0.80 17.35 1.20 19.75 3.15 3.80 6.55 3.75 27.95 -0.50 15.75 -3.15 25.40 -5.75 45.90 -12.50 7 -2.30 20.25 -7.50 30.25 -11.90 29.45 -12.85 47.75 -27.80 83.20 -67.85 16 -18.10 18.25 -20.50 22.70 -24.50 5.90 -5.30 9.75 -7.95 18.85 -13.10 9.95 -5.65 10.90 -6.30 16.70 -11.65 4.80 -4.45 10.25 -8.25 17.60 -12.25 6.90 -3.75 7.75 -5.10 8.75 -13.65 0.30 -2.50 0.70 -3.35 3 -6.35 1.70 -2.10 4.20 -4.50 6.60 -6.20 4.80 -3.40 6.10 -4.55 6.10 -5.50 0 -1.35 -2.20 -3.35 -4.25 -3.80 -4.35 -1 -7.80 -0.40 -10.40 1.90 -1.25 1.10 -1.50 0.45 -0.65 -1.65 0.70 -1.60 0.70 -2 0.05 -3.25 -0.95 -1.85 -2.30 -2.25 -4.20 -1.25 -3.50 1.80 -5.65 6.25 -6.65 13.85 -0.40 3 -0.80 4.40 -1.25 4.40 -0.35 0 -2.20 1.45 -4.05 3.25 l-3.45 3.25 -2.55 -5.65 c-1.40 -3.05 -2.90 -6.70 -3.35 -8.10 -1.30 -4.10 -3.85 -8.45 -5.35 -9.15 -2.55 -1.20 -5.40 1.35 -5.40 4.80 0 1.45 1.40 6.90 3.05 11.75 1.15 3.50 1.25 11.95 0.15 12.90 -0.40 0.30 -3.45 0.65 -6.80 0.80 -5.65 0.25 -6.40 0.20 -8.80 -0.85 -3.15 -1.35 -3.60 -2.10 -3.60 -5.60 0 -7.10 -1.95 -12.50 -5.55 -15.60 -1.70 -1.45 -2.55 -1.80 -4.20 -1.80 -1.10 0 -2.55 0.35 -3.20 0.80 -1.10 0.80 -1.15 0.95 -0.80 5.75 0.65 8.70 -0.75 14.55 -5.70 24.30 -0.85 1.75 -2.40 5.35 -3.45 8 -1.30 3.35 -3 6.40 -5.35 9.65 -9.40 13.05 -19.55 20.75 -56 42.50 -15.50 9.25 -20 12.35 -28.45 19.50 -9.65 8.20 -9.05 8 -27.05 8.55 -15 0.40 -21.85 1.05 -30 2.75 -6.50 1.35 -11.50 2.85 -17.50 5.30 -3.30 1.35 -6.20 2.50 -6.50 2.50 -0.25 0.05 -3.10 -0.75 -6.25 -1.75 -9.60 -3 -13.75 -3.55 -26.50 -3.60 -11.85 0 -14.65 0.35 -24 2.65 -4.20 1.05 -6.50 1.30 -11.50 1.35 -5.50 0 -6.60 -0.15 -9.40 -1.25 -6.90 -2.70 -11.70 -9.30 -13.05 -17.95 -0.40 -2.65 0 -6.10 1.70 -13.80 0.70 -3.10 0.80 -5.20 0.60 -9.40 -0.30 -4.75 -0.20 -5.65 0.65 -7.30 2 -4 7.10 -7 18.25 -10.80 10 -3.40 11.55 -4.90 11.15 -10.75 -0.25 -3.30 -0.35 -3.55 -2.85 -6.30 -2.45 -2.75 -3.20 -4.75 -2.05 -5.45 0.30 -0.15 0.50 -1.20 0.50 -2.25 0 -1.55 -0.30 -2.15 -1.55 -3.25 l-1.60 -1.30 1.10 -1.15 c0.55 -0.60 1.05 -1.40 1.05 -1.80 0 -0.35 -1.10 -1.85 -2.50 -3.30 -1.35 -1.45 -2.50 -2.90 -2.50 -3.20 0 -0.30 0.50 -0.70 1.15 -0.95 0.60 -0.25 1.95 -1.30 2.95 -2.40 1.50 -1.50 1.85 -2.35 2 -4.10 0.10 -1.90 -0.10 -2.35 -1.35 -3.35 -0.85 -0.65 -1.65 -1.20 -1.80 -1.20 -0.50 0 -15.50 -8.20 -18.45 -10.05 -3.60 -2.30 -4.05 -2.95 -4.20 -5.65 -0.35 -4.95 -8.05 -12.75 -18.55 -18.75 -2.45 -1.40 -4.70 -2.55 -5 -2.55 -0.25 0 -1.15 -0.35 -1.95 -0.75 -2.65 -1.40 -9.50 -2.85 -14.30 -3.10 -4.85 -0.25 -14.50 0.50 -17.20 1.30 -14.60 4.50 -22.20 8.80 -30.55 17.25 -4.05 4.10 -5.45 5.90 -7.35 9.55 -3.45 6.70 -5.35 12.60 -5.95 18.50 -1.60 15.85 4.30 29.75 17.35 40.80 11.40 9.70 12.70 11 14.30 14.15 3.20 6.30 3.65 10.90 1.65 17.15 -2.30 7.40 -6.65 13.05 -12 15.70 -4 1.95 -8.65 2.85 -17.85 3.45 -9.15 0.55 -12.20 1.05 -18.70 2.95 -17.05 4.95 -32.65 16.10 -46.35 33.05 -6.10 7.50 -13.20 15.25 -18.10 19.65 -2.75 2.50 -5.20 4.80 -5.50 5.10 -0.80 0.90 -7.30 5.95 -9.75 7.60 -2.35 1.60 -19.45 11.30 -22.50 12.75 -4.35 2.10 -12.25 5.20 -20.15 7.85 -11.35 3.85 -15.20 5.45 -23.50 9.65 -6.95 3.50 -15.85 9.15 -21.70 13.75 -24.40 19.10 -31.10 23.95 -42.85 31 -18.40 11.05 -22.90 11.90 -43.05 8.45 -13.85 -2.40 -18.50 -3.70 -27.50 -7.60 -10.85 -4.75 -13.80 -5.70 -17.60 -5.70 -2.90 0 -3.35 0.15 -4.70 1.45 -1.20 1.20 -1.45 1.90 -1.45 3.80 0 2.25 0.15 2.50 3.40 5.70 1.95 1.95 5.70 4.80 9.10 6.90 3.15 1.95 6.25 4.10 6.80 4.75 4.40 4.80 3.80 12.40 -1.40 17.45 -1.85 1.75 -7.75 4.45 -9.90 4.45 -0.50 0 -2.05 -1.30 -3.45 -2.90 -1.90 -2.25 -3.35 -3.30 -6.05 -4.55 -3.30 -1.55 -3.60 -1.60 -4.75 -0.85 -1.85 1.20 -2 2.55 -0.50 5.05 1.25 2.15 1.05 3.10 -0.30 1.45 -1.10 -1.30 -6.30 -4.70 -9.30 -6 -3.65 -1.65 -7.85 -2.05 -10.25 -1.05 -2.25 0.95 -3.70 3.35 -2.90 4.80 0.25 0.55 3.50 3.45 7.15 6.50 9.15 7.65 10.60 8.95 10.35 9.25 -0.15 0.10 -3.40 1.50 -7.25 3 -10.70 4.30 -11.60 4.80 -14.50 8.30 -2.15 2.55 -2.30 4.50 -0.50 5.70 1.95 1.30 3.20 1.05 16.80 -2.95 4.05 -1.20 9 -2.55 11 -2.95 2.05 -0.40 5.30 -1.10 7.15 -1.55 4 -0.95 6.95 -0.75 16.05 1 9.95 1.95 10.85 1.90 14.20 -0.75 1.40 -1.10 6.45 -3.90 11.20 -6.25 4.75 -2.30 10.35 -5.30 12.40 -6.65 3.95 -2.60 12.35 -9.20 15.75 -12.40 1.15 -1.10 2.70 -2.50 3.50 -3.15 4.80 -3.95 6.75 -6.10 6.85 -7.40 0.10 -1.25 -0.05 -1.40 -1.35 -1.30 -0.80 0.05 -1.80 0.50 -2.30 1 -0.45 0.50 -1.50 1.45 -2.30 2.10 -0.80 0.65 -4.05 3.50 -7.20 6.30 -11.95 10.55 -16.75 13.75 -27.50 18.30 -1.50 0.65 -4.30 2.05 -6.25 3.10 -4.80 2.65 -6.90 3.35 -10.20 3.35 -8.10 0 -16.90 -4.95 -21.40 -11.95 -1 -1.55 -2.80 -4.65 -4 -6.90 -3.35 -6.30 -1.70 -5.50 6.85 3.30 6.40 6.55 10.30 10.05 11.10 10.05 0.15 0 0.40 -0.45 0.55 -0.95 0.20 -0.75 0.85 -1.05 3.15 -1.30 6.70 -0.75 8.55 -1.80 12.95 -7.25 4.95 -6.20 9.50 -10.30 13.45 -12.25 4.55 -2.25 8.25 -3.25 20.30 -5.50 5.35 -1 11.40 -2.25 13.40 -2.80 4.80 -1.25 15.75 -6.15 23.30 -10.35 8.70 -4.85 32.30 -16.50 41.05 -20.25 14.10 -6.05 27.30 -10.25 37.45 -11.85 4.60 -0.75 25.30 -3.35 26.55 -3.35 0.55 0 2.55 -0.35 4.50 -0.80 3.05 -0.70 4.40 -0.75 3.70 -0.20 -0.10 0.10 -1.85 1.50 -3.90 3.15 -2.05 1.60 -5 3.75 -6.60 4.70 -1.60 0.95 -5.45 3.35 -8.60 5.30 -14.30 9 -24.20 13.10 -63.90 26.45 -29.25 9.85 -41.55 14.55 -52.80 20 -10 4.85 -11.75 6.20 -9.85 7.60 0.50 0.35 1.05 0.60 1.20 0.50 1.75 -1 16.25 -7.90 19.50 -9.20 9.40 -3.90 22.50 -8.55 41.75 -14.90 22.70 -7.55 42.80 -14.95 51.25 -18.90 1.25 -0.55 4.30 -2.15 6.75 -3.50 2.50 -1.35 5.15 -2.80 5.95 -3.25 1.45 -0.75 3.20 -1.95 9.75 -6.50 1.70 -1.20 5.40 -4 8.20 -6.20 10.50 -8.20 9.50 -7.65 20.15 -11.35 11.75 -4.05 12.90 -4.50 21.70 -8.55 12.35 -5.65 24.15 -12.80 37.25 -22.50 3.05 -2.25 6.50 -4.65 7.70 -5.35 l2.15 -1.30 2.70 1.30 c1.45 0.75 3.60 2.15 4.75 3.20 1.95 1.75 2.05 2 1.75 3.95 -0.30 2.30 -1.20 0.35 11.45 24.20 5.90 11.05 16 31.65 21.05 42.85 6.80 15.20 10.20 27.75 10.20 38 0 5.50 -1 12.20 -2.10 14.40 -0.30 0.55 -2.95 3.50 -5.85 6.50 -2.90 3.05 -6.65 7.10 -8.30 9 -1.65 1.95 -4.90 5.65 -7.30 8.25 -5.90 6.50 -21.85 25.60 -26.80 32.05 -7.25 9.40 -11.55 17.20 -14.60 26.35 -2.90 8.80 -3.30 11.55 -3.25 21.85 0 8.55 0.15 10.15 1.45 16 2.90 13.30 1.90 22.40 -3.25 29.60 -2.20 3.05 -12.30 14.50 -18.60 21.05 -12.20 12.80 -20.75 24.80 -32.90 46.35 -9.65 17.10 -10.95 19.05 -16.05 24.30 -9.75 9.95 -18.05 15.75 -34.45 23.95 -18.15 9.10 -26.50 14.60 -35.05 23.05 -7 6.95 -12.20 14.60 -17.60 25.90 -5.85 12.30 -17.80 32.40 -26.05 43.80 -6.60 9.15 -16.50 19.35 -21.40 22 -2.50 1.35 -3 1.45 -8.40 1.45 -3.15 0.05 -8.20 -0.15 -11.25 -0.40 -5.50 -0.40 -5.50 -0.40 -8.25 1.05 -3.45 1.80 -6.20 5.30 -7.50 9.60 -1.95 6.20 -1.15 12.20 3.30 25.05 2.75 7.90 2.85 8.45 2.90 13.50 0.05 4.90 -0.05 5.50 -1.50 8.50 -2 4.20 -4.10 6.55 -8.30 9.35 -6.20 4.10 -8.45 8.05 -8.45 15.10 0 4.30 0.50 6.65 1.50 7.30 0.95 0.55 0.60 1.25 -0.70 1.25 -1.95 0 -4.80 1.35 -6.65 3.15 -4.80 4.60 -5.40 12.30 -1.25 16.20 1.65 1.60 1.85 1.65 5.90 1.65 3.20 0 4.35 -0.20 5.20 -0.85z"/>
  <path d="M155.30 922.05 c-2.10 -2.30 -1.45 -7.20 1.35 -10.35 2.65 -3.05 3.80 -3.40 11.35 -3.40 6.25 -0.05 6.95 -0.15 9.65 -1.40 7.15 -3.35 10.70 -7.95 21.60 -27.70 2 -3.60 4.85 -9.25 6.35 -12.50 4.60 -9.80 13.80 -29.95 16.90 -36.90 7.50 -16.85 18.10 -38 23.80 -47.40 15.45 -25.60 30.20 -40.40 50.70 -51 5.85 -3 17.65 -7.90 19.10 -7.90 0.55 0 1.60 -0.35 2.40 -0.75 3.25 -1.70 0.70 -3.70 -3.40 -2.65 -5.45 1.35 -21.95 8.80 -26.75 12.10 -1.05 0.70 -2 1.30 -2.15 1.30 -0.70 0 -10.55 7.55 -15 11.55 -10.10 9.05 -17.85 19.20 -29.40 38.45 -4 6.60 -7.50 13.45 -13.30 25.75 -1.20 2.50 -3.60 7.55 -5.40 11.25 -1.75 3.70 -4.65 9.90 -6.35 13.75 -10.65 23.85 -20.55 44.10 -25.85 52.85 -9.05 15.05 -12.95 18.30 -21.25 17.80 -2.95 -0.20 -3.95 -0.45 -4.50 -1.20 -1.95 -2.70 -2.10 -9.40 -0.25 -12.95 1.20 -2.40 3.10 -4.20 8.25 -7.95 4.60 -3.40 7.05 -6.80 8.40 -11.65 1.75 -6.25 1.15 -10.75 -2.80 -21.90 -2.75 -7.70 -3.75 -12.50 -3.75 -17.65 0 -3.40 0.20 -4.35 1.55 -7 1.80 -3.65 4.70 -5.95 8.10 -6.40 1.20 -0.20 4.30 -0.05 6.90 0.30 6.70 0.90 8.75 0.95 12.45 0.15 6 -1.25 10.55 -4.35 17.45 -11.75 12.75 -13.80 26.30 -35.15 38.30 -60.40 8.35 -17.60 21.05 -29.40 44.50 -41.50 18.50 -9.55 26.35 -14.30 32.70 -19.90 2.05 -1.80 2.55 -2.05 2.05 -1.10 -1.35 2.60 -6.10 8.30 -15.20 18.15 -4.15 4.50 -4.90 5.55 -4.45 6.25 1.20 1.95 2.40 1.30 8.15 -4.75 5 -5.25 7.85 -8.55 12.65 -14.65 0.75 -0.95 3.60 -5.10 6.30 -9.25 7.95 -11.95 10.05 -14.90 18.60 -25.75 9.85 -12.55 13.25 -16.75 15.15 -18.75 0.80 -0.80 2.95 -3.30 4.70 -5.50 8.90 -10.95 19.05 -21.15 24.90 -25.05 6.60 -4.40 10.20 -5.45 18.70 -5.40 6.65 0 9.90 0.45 19.75 2.70 12.85 2.85 19 3.95 24.50 4.25 5.05 0.25 10.25 1.30 10.25 2.05 0 0.45 -5.75 7.45 -11.15 13.50 -9.80 11.05 -23.75 23.65 -36.35 32.80 -1.80 1.30 -3.80 2.75 -4.50 3.25 -0.70 0.50 -3.15 2.15 -5.50 3.65 -2.35 1.45 -5.35 3.40 -6.75 4.25 -4.35 2.80 -8.75 5.15 -17.50 9.45 -10.35 5.10 -18.40 8.35 -36 14.50 -20.90 7.30 -25.60 9.35 -29.90 13.25 -7.25 6.50 -2.75 13.20 9.80 14.55 13.75 1.55 31.85 -1.75 52.85 -9.55 7.15 -2.65 26.75 -12.25 33 -16.20 2.05 -1.30 4.40 -2.75 5.15 -3.20 4.10 -2.35 14.55 -9.55 19.70 -13.60 16.80 -13.15 28.90 -24.75 41.40 -39.65 7.40 -8.85 9.40 -12.40 7.50 -13.10 -1 -0.40 -1.75 0.25 -5.95 5.30 -13.85 16.75 -28.55 31.40 -43.80 43.55 -17.20 13.75 -39.65 26.45 -62.50 35.35 -8.90 3.45 -22.65 6.65 -32.95 7.60 -9.85 0.95 -20.20 -0.45 -23.40 -3.20 -1.35 -1.20 -1.35 -1.20 -0.55 -2.95 1.65 -3.45 10.75 -8.25 24.40 -12.85 8.55 -2.90 22.25 -7.70 25 -8.75 3.50 -1.35 18 -7.80 20.25 -9 1.10 -0.60 4.05 -2.20 6.50 -3.50 11.85 -6.35 28.15 -17.50 40.50 -27.70 11.85 -9.85 22.80 -21.15 29.90 -30.90 2.25 -3.10 4.35 -5.60 4.65 -5.65 0.30 0 2.65 0.85 5.25 1.90 9.65 3.95 26.40 9.25 35.70 11.30 4.90 1.05 19.20 3.10 27.10 3.85 8.30 0.75 32.15 0.30 41.40 -0.80 3.60 -0.45 8.75 -1 11.50 -1.25 2.75 -0.25 5.90 -0.60 7 -0.75 1.10 -0.15 2.90 -0.40 4 -0.50 5.30 -0.70 23.80 -0.85 26.80 -0.30 2.90 0.55 8.45 2 8.90 2.35 0.10 0.10 -1.90 2.55 -4.40 5.55 -7.35 8.65 -11.90 15.85 -18.55 29.15 -7.35 14.75 -10.15 25.20 -10.15 38.25 -0.05 8.55 0.45 11.60 4.15 27.50 4.40 18.65 6.30 32.05 6.85 47.30 0.40 12.55 -1.10 23.65 -4.55 33.85 -2.70 7.90 -4.60 9.95 -14.55 15.90 -10.40 6.15 -14 11.50 -14 20.70 0 4.45 0.15 5 1.90 8.70 1.35 2.90 2.75 4.80 5.20 7.25 3.80 3.75 6.95 5.55 14.75 8.50 10.80 4 12.45 6.10 24.90 31.05 3.60 7.30 7.10 13.95 7.75 14.80 0.65 0.85 2.70 2.35 4.60 3.35 4.05 2.15 5.25 2.05 -12.60 1.35 -11.50 -0.45 -194.55 -0.85 -406.95 -0.95 -40.95 -0.05 -68.30 -0.25 -68.05 -0.50 0.30 -0.25 3.90 -1.95 8 -3.75 11.60 -5.15 11.40 -5 30.25 -26.80 3.15 -3.65 6 -7 6.25 -7.45 0.30 -0.50 2.15 -2.80 4.15 -5.20 6.50 -7.65 10.50 -13.45 14.15 -20.50 4.15 -8 6 -10.65 13.75 -19.60 7.70 -8.90 18.50 -19.70 30.20 -30.05 1.50 -1.35 3.85 -3.50 5.25 -4.75 1.35 -1.30 4.20 -3.70 6.25 -5.45 2.05 -1.70 5.20 -4.50 7 -6.20 1.80 -1.70 6.65 -6.10 10.75 -9.80 4.15 -3.70 10.75 -9.85 14.75 -13.75 21.30 -20.60 21.45 -20.70 45.50 -28.30 8.85 -2.80 18.05 -8.80 32.35 -21.10 4.95 -4.25 5.60 -5.15 4.45 -6.30 -1.10 -1.05 -2.30 -0.35 -7.05 3.95 -8.50 7.75 -17.60 14.05 -25.40 17.75 -4.40 2.05 -7.25 3.05 -17.10 6 -9.50 2.85 -16.35 7.30 -28.50 18.65 -1.90 1.80 -7 6.55 -11.25 10.60 -4.25 4.05 -8.90 8.35 -10.30 9.55 -1.40 1.20 -5 4.45 -8.05 7.20 -3 2.75 -10.20 9.15 -15.90 14.25 -22.20 19.70 -38.55 36.90 -45.90 48.30 -1.20 1.90 -3.25 5.55 -4.55 8.10 -3.45 6.95 -7.45 12.60 -16.05 22.60 -3.15 3.65 -7.65 9.10 -16.40 19.75 -1.15 1.40 -4 4.45 -6.35 6.80 -3.75 3.75 -4.95 4.60 -10 7.10 -3.15 1.55 -7 3.25 -8.50 3.85 -4.75 1.75 -8.05 4.40 -9.70 7.65 l-1.45 2.85 -2.60 0 c-1.95 0 -2.80 -0.25 -3.45 -0.95z"/>
  <path d="M696.25 919.45 c-2.45 -0.20 -7.40 -0.35 -11 -0.40 -11.20 -0.10 -19.50 -1.95 -25.35 -5.65 -4.90 -3.10 -5.65 -4.70 -5.60 -11.65 0.10 -6.65 1.20 -13.80 7.95 -52 1.55 -8.90 2.60 -15.25 3 -18.75 0.20 -1.50 0.95 -6.70 1.75 -11.50 0.80 -4.80 1.90 -12 2.50 -16 1.95 -13.05 8.15 -42.50 8.85 -41.80 0.15 0.10 -0.20 2.65 -0.80 5.65 -1 5.30 -1.80 10.30 -3.25 19.65 -1.20 7.50 -2.20 21.45 -2.85 38 -0.65 17.05 -0.45 22.50 1.15 31.25 0.95 5.35 1.10 7.95 1.15 24 0.10 19.40 0.20 20.25 2.90 24.90 1.70 2.90 5.35 6.15 8.25 7.40 1.30 0.55 4.90 1.35 8 1.70 6.15 0.80 10.40 2.30 10.90 3.85 0.35 1.15 -0.50 1.90 -2.05 1.80 -0.55 -0.05 -3 -0.20 -5.50 -0.45z"/>
  <path d="M648.40 896.50 c-2.90 -6.75 -7.60 -15.35 -10.90 -19.85 -0.95 -1.30 -1.85 -2.60 -1.95 -2.80 -0.30 -0.75 3.75 1.55 6.35 3.60 1.40 1.15 2.90 2.05 3.30 2.05 0.90 0 1.45 -1.55 1 -2.70 -0.50 -1.35 -6.25 -5.20 -10.15 -6.75 -5.05 -2.10 -6.95 -3.60 -14.60 -11.35 -7.10 -7.25 -10 -11.55 -10.10 -14.95 -0.05 -2.60 2.45 -6.95 8 -13.90 10.20 -12.75 16.60 -25.30 19.65 -38.55 2.40 -10.50 3.15 -16.65 3.20 -27.55 0.05 -11.85 -0.30 -14.30 -3.95 -28.75 -7.70 -30.75 -8.80 -39 -6.50 -50.30 2.45 -11.90 10.50 -27.35 19.45 -37.25 1.10 -1.25 2.75 -3.05 3.55 -4 0.85 -0.95 2.90 -3 4.65 -4.65 5.10 -4.75 6.40 -8.70 3.85 -11.70 -0.70 -0.85 -1.25 -1.75 -1.25 -2.05 0 -0.80 3.85 -3.50 7.35 -5.10 7.75 -3.60 13.25 -0.80 15.90 8.05 1.15 3.85 1.50 13.15 0.75 20.25 -1.95 19.25 -12.15 61.45 -26.25 108.50 -0.75 2.50 -2.55 8.90 -4.05 14.25 -5.75 20.50 -13.75 41.85 -19.90 53 -5.20 9.40 -6 12.50 -4.30 16.10 2.10 4.50 5.95 6.75 17.65 10.40 6.40 2 8.85 2.95 8.85 3.50 0 0.45 -0.80 5.40 -1.75 11 -2.55 15.25 -4.30 27.65 -4.70 33.25 l-0.30 5 -2.85 -6.75z"/>
  <path d="M618.95 863.55 c-5.85 -2.55 -7.45 -3.60 -10.60 -7.05 -4 -4.30 -5.55 -7.80 -5.75 -12.75 -0.30 -7.25 2 -10.95 10.40 -16.75 1.50 -1 3.95 -2.95 5.40 -4.25 1.40 -1.30 2.60 -2.20 2.60 -2.05 0 0.10 -1.80 2.80 -4 5.90 -7.40 10.55 -8.65 12.75 -8.90 15.70 -0.45 5.25 2.90 10.80 11.25 18.70 2.60 2.45 4.55 4.50 4.35 4.45 -0.25 0 -2.40 -0.85 -4.75 -1.90z"/>
  <path d="M650.75 847.45 c-7.70 -2.20 -14.25 -5.35 -15.85 -7.60 -1.50 -2.10 -1 -4.05 3.10 -12.60 8.30 -17.20 13.40 -29.95 17.25 -43.25 1.55 -5.35 3.65 -12.55 4.75 -16 1.05 -3.45 3.95 -13.45 6.45 -22.25 2.45 -8.80 5.30 -18.80 6.25 -22.25 3.60 -12.55 9.20 -35.15 12.35 -50 1.40 -6.45 3.80 -23.60 4.20 -29.50 0.60 -9.75 -1.05 -19.85 -3.90 -24.10 -1.50 -2.20 -5.30 -4.45 -8.05 -4.75 -4.30 -0.50 -11 1.90 -16.25 5.80 -3.10 2.30 -3.85 2.45 -6.45 1.10 -5.30 -2.70 -16.05 -3.65 -28.85 -2.55 -4.10 0.35 -8.85 0.70 -10.50 0.75 -1.65 0.10 -4.80 0.40 -7 0.70 -13.25 1.75 -21 2.25 -37 2.25 -12.90 0.05 -18 -0.15 -23.35 -0.85 -6.70 -0.85 -19.55 -3.35 -27.55 -5.40 -11.80 -2.95 -31.85 -10.15 -31.85 -11.45 0 -1.35 18.75 -11.30 27.95 -14.85 19.15 -7.30 47.60 -13.15 71.05 -14.70 13.45 -0.85 40.40 -0.35 50.50 1 14.25 1.85 21.40 3.40 32.75 7.05 11 3.60 20.35 8.95 25.50 14.65 3.25 3.55 6.50 9.80 7.25 13.80 1 5.40 0.25 16.20 -1.75 24.70 -0.45 1.85 -2.10 9.95 -3.75 18 -1.60 8.05 -4.10 20.10 -5.50 26.85 -1.40 6.75 -3.10 15.40 -3.75 19.25 -2 11.75 -5.50 27.50 -8.40 38 -1.50 5.50 -3.10 11.45 -3.50 13.25 -5.85 24.10 -8.10 34.65 -9.85 45.50 -0.85 5.35 -2.55 15.95 -3.75 23.50 -1.90 11.80 -3.75 25.35 -3.75 27.40 0 0.90 -1.15 0.70 -8.75 -1.45z"/>
  <path d="M635.35 787.25 c0.60 -3.05 0.40 -20.80 -0.30 -27 -1.15 -10.40 -3.60 -24.15 -6.30 -35.50 -3.65 -15.10 -3.90 -16.90 -3.95 -26.25 -0.05 -10.40 0.65 -14.65 4 -24 2.70 -7.50 8.30 -19 12.40 -25.50 6.10 -9.75 14.55 -20.70 16.30 -21.25 1.15 -0.35 3.45 1.90 3.50 3.40 0 0.50 -2.70 3.75 -6.05 7.20 -10.10 10.55 -14.45 16.65 -20 27.90 -5.70 11.70 -7.20 18.55 -6.80 31.75 0.30 9.80 1.05 13.90 6.05 33.75 4.10 16.20 4.50 19.10 4.50 32 0 10.05 -0.15 11.55 -1.40 17.45 -0.75 3.55 -1.55 6.80 -1.85 7.25 -0.30 0.55 -0.35 0.20 -0.10 -1.20z"/>
  <path d="M691.05 704.50 c0 -0.70 0.30 -2.70 0.75 -4.50 1.30 -5.50 11.40 -53.35 12.50 -59.25 2.40 -12.95 2.80 -15.90 2.85 -21.50 0.05 -7.15 -0.75 -10.60 -3.75 -16.45 -4.25 -8.20 -12.85 -15.05 -25.30 -20 -12.80 -5.15 -25.70 -7.95 -45.35 -9.90 -13.10 -1.30 -47.50 -0.65 -60.25 1.10 -1.80 0.25 -5.15 0.70 -7.50 1 -22.25 2.95 -45.85 9.65 -60.75 17.25 -4.40 2.20 -10.65 5.65 -13.90 7.65 -3.25 2 -6.10 3.60 -6.35 3.60 -0.80 0 -10.85 -6.15 -16.25 -9.90 -9.60 -6.65 -20.10 -17.20 -25.25 -25.35 -3.30 -5.15 -5.45 -9.80 -7.55 -16 -1.55 -4.65 -1.65 -5.45 -1.65 -11.75 0 -7.85 0.90 -12.10 4.55 -21.20 4.45 -11.15 9.85 -20.45 23.50 -40.65 15.70 -23.20 23.95 -35.90 26.20 -40.10 1.20 -2.30 2.45 -4.25 2.75 -4.40 0.85 -0.30 7.15 2.70 10.40 5.05 6.20 4.45 13.50 12.70 17.80 20.15 3.85 6.65 7.25 16.75 8.95 26.40 0.30 1.65 0.90 6.40 1.30 10.50 1 9.75 1.10 10.20 2.85 11.85 1.35 1.25 1.40 1.40 0.50 1.40 -2.80 0 -13.55 -4.45 -17.85 -7.35 -1.80 -1.20 -4.25 -0.55 -4.25 1.20 0 0.95 3.20 2.90 8.80 5.35 4.90 2.15 12.95 4.40 29.45 8.30 4.70 1.15 10.40 2.50 12.75 3.05 11.35 2.75 47.55 14.20 61.40 19.40 2.25 0.85 5.90 2.20 8.05 3.05 25.85 9.65 59.35 26.40 73.05 36.55 8.15 6 15.25 13.75 17.85 19.45 2.55 5.50 3.35 10.90 2.40 15.70 -1 5.25 -1.85 7.50 -7.35 19.05 -7.20 15 -11.15 25.55 -16.15 42.75 -1 3.45 -3.20 10.75 -4.95 16.25 -1.75 5.50 -3.40 10.80 -3.70 11.75 -0.40 1.45 -0.50 1.55 -0.55 0.50z"/>
  <path d="M365.70 645.20 c6.25 -11.90 15.95 -25.05 27.75 -37.70 8.70 -9.30 18.55 -20.55 20.40 -23.25 2.05 -3.05 3.55 -7.70 4 -12.35 l0.30 -3.45 2.05 4 c3.95 7.80 11.25 16.45 18.05 21.45 1.95 1.40 3.95 2.90 4.50 3.35 1 0.80 0.95 0.80 -0.25 0.50 -0.70 -0.15 -2.60 -0.65 -4.25 -1.15 -2.15 -0.60 -4.85 -0.85 -9.50 -0.85 -5.70 0.05 -7.05 0.20 -11 1.45 -7.75 2.40 -12.70 5.70 -21 14.05 -5.20 5.20 -16.65 18.60 -26.95 31.40 -3.30 4.05 -6.20 7.55 -6.45 7.70 -0.30 0.15 0.75 -2.15 2.35 -5.15z"/>
  <path d="M467.85 601.45 c-9.40 -1.05 -17.35 -3.65 -24.05 -7.75 -7.30 -4.45 -17.45 -15.90 -21.30 -24.05 -2.40 -5 -5.10 -13 -6.30 -18.65 -1.30 -6.05 -1.30 -21.10 0 -26.75 2.20 -9.65 8.75 -22.50 16.95 -33.40 4.90 -6.50 12.50 -15.60 19 -22.75 3.40 -3.80 8.30 -9.20 10.85 -12.10 15.85 -17.90 20.90 -22.75 22.55 -21.75 0.90 0.55 -5 10.40 -13.30 22.25 -0.85 1.25 -4.75 6.75 -8.60 12.25 -8.40 12 -13.30 19.60 -19.80 30.50 -2.95 5 -8.30 16.15 -9.85 20.60 -2.60 7.30 -3.65 13.55 -3.70 21.40 0 6.25 0.15 7.50 1.35 11.50 1.75 5.75 6.95 16.05 10.60 21.10 6.05 8.25 19.80 20.55 28.85 25.75 4.35 2.50 3.95 2.70 -3.25 1.85z"/>
  <path d="M533.05 502.40 c-0.35 -0.90 -0.90 -4.55 -1.30 -8.15 -1 -9.25 -1.50 -12.20 -3.45 -19.25 -2.20 -8 -4.05 -12.35 -7.80 -18.55 -7.15 -11.85 -16.05 -20.35 -25.35 -24.25 -1.85 -0.75 -3.45 -1.45 -3.55 -1.50 -0.05 -0.05 0.45 -1.85 1.20 -4 3 -9.05 4 -20.40 2.40 -28.70 -2.10 -11.25 -8.90 -24 -27.55 -51.90 -12.90 -19.25 -13.75 -20.45 -20.10 -28 -5.65 -6.80 -12.50 -12.95 -17.15 -15.35 -4.10 -2.15 -10.05 -3.75 -14.05 -3.75 l-3 0 6.55 -3.20 c7.90 -3.90 8.85 -4.20 16 -4.80 8.40 -0.75 14.90 -0.05 19.60 2.05 5.30 2.35 13.40 6.90 24.30 13.75 20.75 13 34.95 18.65 46.75 18.70 3.50 0 4.70 -0.65 4.35 -2.35 -0.15 -0.75 -0.90 -0.95 -5.15 -1.20 -2.75 -0.20 -6.35 -0.60 -8 -0.95 -8.05 -1.65 -19.05 -6.80 -34 -15.90 -5.20 -3.15 -11.15 -6.75 -13.10 -7.95 -2 -1.15 -5.40 -3.20 -7.50 -4.50 -2.15 -1.30 -5.25 -3.05 -6.90 -3.85 -2.40 -1.25 -2.75 -1.60 -1.85 -1.70 0.65 -0.10 1.50 0.10 1.90 0.45 1.05 0.85 3.75 0.90 5.10 0.10 1.20 -0.75 1.45 -2.35 0.50 -3 -0.35 -0.20 -4.25 -0.40 -8.65 -0.40 l-8 0 -5.60 -2.35 c-10.15 -4.25 -15.55 -5.40 -25.25 -5.50 -15.95 -0.10 -33 4.55 -47.35 12.90 -3.15 1.85 -3.15 1.80 4.20 -5.35 4.05 -3.95 9.55 -9.80 12.20 -12.95 6.35 -7.60 14.95 -16.45 19.35 -20 7.95 -6.35 20.15 -12.55 29.35 -14.95 5.10 -1.30 14.20 -2.30 15 -1.65 0.70 0.60 8.20 2.75 14.35 4.15 13.55 3.05 20 4.15 28.25 4.70 15.15 1 25.60 3.45 34.95 8.10 6.65 3.35 14.65 8.50 18.15 11.75 3 2.80 3.25 2.90 5.80 2.90 1.50 0 2.80 -0.15 3 -0.30 0.25 -0.30 -1.40 -5.15 -3.90 -11.45 -0.65 -1.60 -1.15 -3.05 -1.05 -3.15 0.10 -0.10 1.05 0.05 2.15 0.40 1.05 0.30 7.30 0.75 13.90 1 22.15 0.90 28.80 2.85 37.45 11.05 5.70 5.35 5.75 5.55 3.85 9.55 -2.45 5.15 -3.65 11.15 -3.75 18.40 0 3.60 0.20 7.20 0.55 8.50 3.70 13.55 5 23.60 3.70 28.80 -0.80 3.05 -3.60 9.20 -4.80 10.35 -0.85 0.90 -0.95 0.85 -2.60 -0.75 -1 -0.90 -2.95 -3.20 -4.40 -5.15 -4.05 -5.40 -5.55 -6.35 -6.90 -4.15 -0.45 0.65 -0.10 1.40 1.65 3.75 1.20 1.60 3.50 4.25 5.10 5.95 4.20 4.40 6.05 9.05 7.90 20 1.25 7.55 1.35 17.90 0.15 25.30 -0.45 3 -1 5.15 -1.20 4.85 -0.20 -0.35 -0.25 -2.80 -0.10 -5.45 0.45 -7.35 -1.30 -17.35 -4.20 -24.25 -0.70 -1.65 -3.65 -7.85 -6.60 -13.75 -4.05 -8.15 -6 -12.75 -8 -19 -6.35 -19.75 -7.30 -22.60 -9.90 -28.50 -4.45 -10.10 -12.50 -22.85 -17.05 -27.10 -2.70 -2.55 -3.45 -2.85 -3.90 -1.70 -0.40 1 0.50 2.45 3.80 6.55 4.20 5.15 8 11.15 11.65 18.50 4.45 9 6.25 13.80 10.10 27.05 3.20 11.10 3.55 11.90 10.25 25.45 8.50 17.25 9.95 21.55 10.75 31.75 0.60 7.25 -1.45 24.20 -4.45 36.60 -1.40 5.75 -7.90 26.85 -10.30 33.40 -0.90 2.35 -3.35 9.10 -5.50 15 -2.10 5.90 -5.15 14.25 -6.75 18.50 -1.60 4.25 -3 8.10 -3.15 8.50 -0.20 0.55 -0.30 0.50 -0.45 -0.30 -0.15 -0.90 2.50 -13.65 6.10 -29.20 0.70 -2.90 1.90 -8.40 2.75 -12.25 0.85 -3.85 2.65 -11.50 4 -17 4.80 -19.65 9 -39.75 10.35 -49.40 1.20 -8.75 1.15 -18.30 -0.05 -21.85 -1.75 -5.10 -5 -9.40 -7.65 -10.20 -1.90 -0.60 -5.10 0.65 -7.50 2.85 -2.60 2.40 -4.40 5.70 -6.80 12.65 -3 8.60 -4.25 15.25 -7.10 36.95 -1.45 11.05 -2.80 19.40 -4.30 27 -1.50 7.40 -5.20 21.95 -6.60 26.25 -3.30 9.75 -10.10 32.50 -11.60 38.90 -2.30 9.45 -3.05 10.80 -4.20 7.50z"/>
  <path d="M92.50 439.15 c0 -0.70 3.50 -3.20 6.45 -4.65 1.55 -0.80 5.15 -2.25 8.05 -3.25 2.90 -1.05 5.85 -2.15 6.55 -2.55 1.15 -0.60 1.65 -0.50 4.45 0.85 1.75 0.80 3.05 1.60 2.90 1.75 -0.15 0.10 -2.70 0.90 -5.70 1.65 -3 0.80 -8.60 2.45 -12.45 3.70 -7.95 2.55 -10.25 3.10 -10.25 2.50z"/>
  <path d="M482.35 429.90 c0.40 -1.45 0.85 -5.45 1 -8.90 0.40 -8.70 -0.75 -14.95 -4.95 -27 -2.10 -6 -5.70 -14.35 -10.80 -25.10 -5.85 -12.15 -21 -42.20 -24.25 -47.90 -1.80 -3.15 -3.20 -5.85 -3.05 -5.95 0.10 -0.10 0.25 -0.10 0.35 0 0.05 0.10 1.25 1.55 2.60 3.20 9.65 11.50 27.65 37.70 36.20 52.65 5.75 10 10.80 20.65 12.05 25.35 2.35 8.70 1.85 17.10 -1.55 27.90 -1.70 5.25 -2.20 6.35 -3 6.35 -0.55 0 -1.85 0.45 -2.95 1 -1.10 0.55 -2.05 1 -2.15 1 -0.10 0 0.10 -1.20 0.50 -2.60z"/>
  <path d="M124.45 428.05 c-4.15 -0.95 -5.10 -1.55 -15 -10.35 -2.90 -2.60 -6.65 -5.55 -8.30 -6.65 -3.70 -2.40 -4.10 -2.90 -2.40 -3.35 2 -0.50 5.40 0.05 7.90 1.25 4.70 2.30 14.95 11.05 18.90 16.20 1.65 2.10 2.90 3.85 2.85 3.80 -0.10 0 -1.85 -0.40 -3.95 -0.90z"/>
  <path d="M136.90 419.25 c-2.05 -1.90 -2.35 -2.75 -1.15 -2.75 2.40 0 8.70 -4.90 11 -8.50 3.15 -5 3.50 -10.80 0.95 -15.50 -1.75 -3.20 -4.50 -5.65 -10.40 -9.30 -7.35 -4.55 -8.35 -5.30 -9.10 -6.75 -1 -2 -0.90 -2.80 0.60 -3.80 2.10 -1.35 5.75 -0.25 14.15 4.30 7.30 3.95 10.40 5.10 22.55 8.30 6.10 1.65 9.90 3.30 14.70 6.45 3.75 2.50 4.80 2.45 4.80 -0.20 0 -1.70 -1 -2.60 -4.90 -4.30 -1.70 -0.75 -3.05 -1.40 -3 -1.50 0.10 -0.05 1.95 0.35 4.15 0.85 7.70 1.95 18.70 0.65 26.90 -3.05 10.20 -4.60 30 -17.70 44.60 -29.50 7.50 -6.05 18.25 -13.95 23.40 -17.15 8 -4.95 22.20 -11.45 30.35 -13.90 8.20 -2.45 21.95 -8.25 27.45 -11.55 1.75 -1.05 3.30 -1.85 3.40 -1.75 0.50 0.55 -15.10 13.20 -19.75 16.05 -3.25 1.95 -7.40 3.90 -10.35 4.80 -2.80 0.85 -4.25 1.85 -4.25 2.95 0 2.10 2.90 1.70 9.35 -1.20 7.65 -3.50 12.35 -6.80 21.45 -15 15.55 -14.05 16.25 -14.55 30.70 -22.75 10.10 -5.70 13.70 -7.40 22.20 -10.25 9.10 -3.05 15.55 -4.30 24.55 -4.60 7.80 -0.30 13.80 0.40 19.10 2.15 2.80 0.90 9.65 4.30 9.65 4.75 0 0.15 -1.75 0.45 -3.90 0.65 -2.15 0.15 -5.25 0.65 -6.90 1.10 -3.70 0.95 -11.65 4.50 -17.50 7.75 -2.45 1.40 -5.35 2.70 -6.45 2.95 -6.90 1.55 -20.80 7.90 -28.30 13 -5.70 3.85 -6 4 -9.55 6.90 -1.85 1.50 -4.50 3.50 -5.80 4.50 -1.35 1.05 -4.55 3.55 -7.15 5.60 -5.05 4.05 -7.55 5.90 -17.30 12.70 -3.50 2.45 -6.75 4.85 -7.15 5.30 -0.80 0.90 -1.35 1 -13.35 2.25 -9.40 0.95 -13.40 1.60 -19.65 3.05 -14.85 3.50 -33.30 11.05 -58.50 24.10 -30.45 15.70 -33.05 16.75 -51.25 20.10 -10.95 2.05 -13.90 2.85 -18 4.75 -4.90 2.25 -7.80 4.75 -13.40 11.40 -5.70 6.80 -7.25 7.75 -13.15 8.15 l-3.95 0.25 -1.85 -1.80z"/>
  <path d="M336.50 346.10 c0 -0.25 0.90 -0.90 2 -1.55 2.90 -1.65 11.80 -8.10 19.30 -14.10 15.55 -12.40 20 -15.65 26.45 -19.30 5.05 -2.90 17.30 -8.80 17.60 -8.45 0.10 0.10 -1.65 1.40 -3.95 2.95 -2.30 1.50 -7 5.10 -10.50 7.95 -11.85 9.65 -13.75 11.15 -16.60 13.15 -1.55 1.10 -4.25 3.05 -6 4.35 -1.70 1.25 -6.65 4.70 -10.95 7.60 -5.95 4 -8.60 5.45 -11.20 6.20 -4.90 1.45 -6.15 1.65 -6.15 1.20z"/>
  <path d="M362.35 336.85 c10 -6.80 11.40 -7.80 19.15 -14.10 11 -8.85 23.20 -18.10 25.55 -19.30 1.60 -0.80 3.05 -1 6.85 -1.05 4.60 -0.05 10.10 0.80 10.10 1.55 0 0.20 -0.65 0.70 -1.40 1.15 -0.75 0.45 -4.10 2.80 -7.35 5.20 -7.35 5.35 -15.10 10.70 -15.55 10.70 -0.15 0 -0.90 0.40 -1.60 0.95 -4.30 3 -20.05 10.75 -28.10 13.80 -3.45 1.30 -7.55 2.90 -9.10 3.55 -1.60 0.65 -3.10 1.20 -3.40 1.20 -0.30 0 1.90 -1.65 4.85 -3.65z"/>
  <path d="M610.05 300.60 c-1.95 -1.90 -2.40 -5.50 -1.55 -12.80 0.30 -3.05 0.70 -7.30 0.85 -9.45 0.15 -2.15 0.45 -3.80 0.65 -3.75 0.20 0.10 1.60 1.75 3.05 3.70 5.80 7.65 11.90 11.35 23.70 14.30 4.55 1.10 13.05 1.50 16.50 0.75 1.15 -0.25 1.30 -0.20 0.50 0.15 -3 1.40 -29.85 7.20 -36 7.75 -1.90 0.15 -4.10 0.45 -4.85 0.55 -1.10 0.20 -1.75 -0.05 -2.85 -1.20z"/>
  <path d="M640 289.75 c-7.90 -1.40 -14.05 -4.10 -19.65 -8.60 -3.35 -2.70 -7.20 -7.35 -8.70 -10.45 -0.75 -1.55 -0.75 -1.65 1.25 -4.25 2.20 -2.95 7.75 -8.45 10.85 -10.80 8.65 -6.45 24.45 -12.35 40.55 -15.20 4.60 -0.80 9.50 -1.10 21.70 -1.45 16.80 -0.45 18.30 -0.70 22.70 -3.25 1.25 -0.70 5.25 -3.80 8.90 -6.80 9.35 -7.70 16.25 -12.25 37.90 -24.95 8.15 -4.75 24.85 -16.05 30.65 -20.75 5.20 -4.15 9.30 -8.25 13.75 -13.80 3.15 -3.95 7.65 -7.85 11.60 -10.05 4.85 -2.75 15.90 -5.90 30.85 -8.85 4.20 -0.85 8.50 -1.95 9.55 -2.50 2.65 -1.35 5.70 -4.85 9.50 -10.85 1.70 -2.70 3.75 -5.75 4.60 -6.70 l1.45 -1.75 0.05 1.50 c0 2.40 -1.90 8.60 -3.35 10.90 -1.95 3.05 -19.45 21.15 -22.40 23.05 -1.35 0.90 -5.55 3.30 -9.25 5.30 -3.70 2 -8.40 4.80 -10.45 6.20 -4.45 3.05 -12.60 11 -22.85 22.30 -10.05 11.15 -24.90 25.90 -30.70 30.55 -10.20 8.25 -25.90 18.90 -38.75 26.30 -7 4.05 -11.40 7.05 -17.45 11.85 -9.45 7.55 -13.60 10.35 -19.55 13.25 -8.50 4.20 -23.35 8.70 -33 10 -5.10 0.70 -15.10 0.60 -19.75 -0.20z"/>
  <path d="M714.85 269.15 c4.30 -3.80 9.50 -7.25 20.90 -13.90 5.60 -3.25 18.50 -11.90 24.25 -16.25 5.60 -4.20 5.75 -4.05 0.75 0.75 -6.80 6.55 -20.75 17.70 -28 22.40 -4.10 2.60 -18.80 10.10 -21 10.65 -1.20 0.30 -0.65 -0.40 3.10 -3.65z"/>
  <path d="M604.75 262.80 c-8.55 -8.80 -18.20 -12.65 -34 -13.60 l-6.50 -0.40 4.75 -0.60 c2.60 -0.30 6.60 -1.05 8.90 -1.65 9.55 -2.50 23.55 -3.35 33.85 -2.05 6.60 0.80 16.25 3.50 16.25 4.55 0 0.25 -0.65 0.75 -1.45 1.15 -3.50 1.85 -11.65 8.50 -14.55 11.85 -1.70 2.05 -3.25 3.85 -3.45 4 -0.15 0.20 -1.85 -1.30 -3.80 -3.25z"/>
  <path d="M543.40 257.95 c-6.95 -7.05 -10.90 -17.95 -16.10 -44.70 -1.25 -6.30 -2.85 -13.70 -3.50 -16.45 -2.05 -8 -6.30 -20.65 -7.60 -22.55 -1.80 -2.70 -0.75 -2.10 2.75 1.50 4.65 4.85 9.35 6.90 17.30 7.50 3.05 0.25 6.15 0 13 -1 9.25 -1.35 17.90 -3 18.90 -3.55 0.45 -0.25 0.45 -0.20 0.05 0.25 -0.30 0.35 -3.90 1.75 -8 3.10 -15.40 5.15 -19.95 9.95 -19 20 0.45 4.15 -0.25 9.40 -2.25 17.25 -2.40 9.50 -2.10 18.50 0.90 25.20 0.65 1.50 1.50 3.05 1.85 3.50 0.95 1.05 5.50 12.45 5.15 12.85 -0.20 0.15 -1.75 -1.15 -3.45 -2.90z"/>
  <path d="M534 252.45 c-11.15 -7.55 -28.25 -12.45 -43.45 -12.45 -2.20 0 -6.65 -0.45 -9.90 -1 -5.75 -1 -25.65 -5.30 -26 -5.70 -0.10 -0.10 1.15 -0.30 2.80 -0.50 8.80 -1 16.15 -5.60 20.40 -12.80 1.50 -2.50 2.55 -5.90 3.45 -11.15 0.75 -4.20 0.75 -4.90 -0.05 -8.70 -1.60 -8.05 -4.20 -11.85 -13.20 -19.05 -14.10 -11.35 -20.05 -21.20 -20.85 -34.50 -0.75 -12.90 3.65 -23.75 13.85 -34 6.40 -6.40 13.25 -10.50 23.10 -13.80 7.20 -2.40 11.30 -3 19.10 -2.65 9.70 0.40 16.85 2.80 25.50 8.60 8.20 5.45 12.10 10.05 12.80 15.10 0.20 1.50 0.80 3.20 1.30 3.75 1.30 1.45 8.70 5.75 16.75 9.70 4.15 2 7 3.75 7.15 4.25 0.45 1.40 -0.65 2.95 -2.30 3.30 -1.85 0.35 -3.95 2.80 -3.95 4.60 0 1 0.55 1.80 2 3 1.10 0.85 2 1.95 2 2.40 0 0.40 -0.65 1.55 -1.50 2.50 -0.80 0.90 -1.50 2 -1.50 2.35 0 0.90 1.30 1.35 2.75 1 1.70 -0.40 2.45 1.30 2.30 5.30 l-0.10 3.25 2.75 2.90 c2.30 2.35 2.80 3.20 2.80 4.60 0 1.50 -0.20 1.80 -2.10 2.65 -1.20 0.50 -4.30 1.20 -6.90 1.55 -2.60 0.35 -7 0.95 -9.75 1.35 -10.60 1.55 -13.60 1.80 -17.25 1.50 -6.15 -0.45 -12.15 -3.30 -15.30 -7.20 -5.05 -6.20 -7.45 -8.60 -8.70 -8.60 -1.50 0 -2.50 0.85 -2.50 2.05 0 0.45 1.10 3.15 2.50 6 2.45 5.15 6.10 15.70 8 23 0.55 2.10 2 9.10 3.30 15.50 4.35 22.35 8.65 37.15 12.10 41.85 0.70 0.85 1.15 1.60 1.05 1.60 -0.10 0 -1.20 -0.70 -2.45 -1.55z"/>
  <path d="M553 247.95 c-5.80 -0.90 -7.65 -1.60 -8.85 -3.35 -1.60 -2.40 -3 -6.40 -3.35 -9.60 l-0.30 -2.75 1.05 2.50 c2.55 6.20 7.55 10.40 14.90 12.60 3.70 1.05 3.75 1.10 1.55 1.05 -1.25 0 -3.50 -0.20 -5 -0.45z"/>
  <path d="M807.30 155.40 c1.30 -4.30 4.25 -7.35 10.15 -10.35 5.70 -2.90 7.30 -3.15 13.25 -1.80 3.85 0.85 9.90 0.85 13.95 -0.05 1.20 -0.30 1.40 -0.20 1.25 0.55 -0.10 0.75 -1.60 1.25 -7.45 2.55 -9.65 2.10 -14.70 3.70 -23.40 7.25 -3.95 1.60 -7.40 2.95 -7.65 2.95 -0.25 0 -0.30 -0.50 -0.10 -1.10z"/>
  <path d="M865.10 145.70 c2.55 -2.85 4.95 -7.25 5.80 -10.70 0.30 -1.25 0.70 -5.50 0.90 -9.50 0.35 -7.90 1.15 -10.90 3.55 -13.10 1.20 -1.05 1.25 -1.05 0.90 -0.15 -0.80 2.10 -1.25 6.75 -1.20 13.75 0.05 4.50 -0.25 8.75 -0.70 11.25 -0.65 3.55 -0.95 4.15 -2.60 5.60 -1.05 0.90 -2.90 2 -4.20 2.45 -1.25 0.50 -2.85 1.35 -3.55 1.90 -0.70 0.60 -0.20 -0.10 1.10 -1.50z"/>
  <path d="M812.75 143.50 c-0.10 -0.20 0.45 -1.60 1.25 -3.05 0.80 -1.50 1.50 -3.15 1.50 -3.70 0 -0.55 0.35 -2 0.80 -3.20 0.50 -1.45 0.75 -3.85 0.70 -7 -0.10 -6.25 -0.10 -6.05 0.70 -6.05 1.15 0 3.30 2 4.40 4.15 0.90 1.70 1.10 3.20 1.30 8.20 0.20 5.65 0.15 6.15 -0.70 6.40 -0.55 0.15 -2.90 1.25 -5.30 2.45 -2.45 1.25 -4.50 2.05 -4.65 1.80z"/>
  <path d="M850.30 142.70 c-0.15 -0.45 -0.30 -3.55 -0.30 -6.95 0 -6.30 -0.60 -10.40 -2.45 -16.25 -1.30 -4.10 -1.35 -5.65 -0.20 -5.40 0.60 0.10 1.70 2.10 3.25 5.90 1.35 3.15 3.45 7.90 4.65 10.55 l2.30 4.75 -0.85 2 c-0.90 2.25 -2.85 4.50 -4.80 5.50 -1.15 0.60 -1.35 0.60 -1.60 -0.10z"/>
  <path d="M878.50 123.40 c0 -1.20 0.40 -2.80 0.95 -3.70 1.30 -2.10 5.35 -4.70 7.35 -4.70 3.20 0 4.25 1.15 1.90 2 -1.90 0.75 -6.75 4.70 -8.20 6.75 -0.70 0.95 -1.40 1.75 -1.60 1.75 -0.25 0 -0.40 -0.95 -0.40 -2.10z"/>
 </g>
</svg>