<?xml version="1.0" encoding="utf-8"?>
<!-- Generator: Adobe Illustrator 28.2.0, SVG Export Plug-In . SVG Version: 6.00 Build 0)  -->
<svg version="1.1" id="Layer_1" xmlns="http://www.w3.org/2000/svg" xmlns:xlink="http://www.w3.org/1999/xlink" x="0px" y="0px"
	 viewBox="0 0 1024 1024" style="enable-background:new 0 0 1024 1024;" xml:space="preserve">
<g>
	<path d="M582.6,498.8H580c-1.1,0-2,0.3-2.2-0.5C578.3,497,581.3,498.5,582.6,498.8z"/>
	<path d="M916.8,99.9c-0.1-0.1-0.1-0.2-0.2-0.2c-0.8-1-2.1-1.6-3.4-1.8c-2.6-0.3-5.8,0-8.2,1.1c-2.4,1.1-4.4,2.9-6.4,4.6
		c-4.9,4.2-9.8,8.5-14.6,12.7c-1.1,0.9-2.2,1.5-3.2,2.4c-0.6,0-3,1.8-3.5,2.1c-1.4,0.8-2.7,1.6-4.2,2.3l-4.9,2.2
		c-1.9,0.8-3.7,1.7-5.6,2.5c-0.4,0.3-0.9,0.5-1.4,0.7c-0.2,0.1-0.4,0.1-0.5,0.1c-0.8,0.3-1.5,0.7-2.3,1c-3.5,1.6-7,3.2-10.5,4.8
		c-1.2,1-2.3,1.9-3.5,2.8c-6.4,4.8-13.4,8.5-19.7,13.4c-2.7,2.1-5.6,4.2-8.6,6c-8.6,9.8-20.8,18.2-51,36.2
		c-15.5,9.2-20,12.3-28.5,19.5c-9.6,8.2-9,8-27,8.5c-22.5,0.7-32.8,2.3-46.8,7.8c-3.2,1.2-6,2.2-6.2,2.2c-0.2,0-2.5-0.7-5-1.5
		c-8.5-2.7-13.6-3.3-27.4-3.3c-13.2,0-15.7,0.3-25.2,2.6c-5.5,1.4-10.3,1.7-14.3,1.1c-0.2,0-0.5,0-0.8,0c-4.4-0.6-8.9-1.6-12-5.1
		c-3-3.5-3.9-8-3.9-12.5c0-0.4,0-0.9,0.1-1.2c-0.1-2.3,0.3-5.1,1.6-10.8c0.5-2.4,0.8-5.5,0.7-9.5c-0.1-4.7,0-6.4,0.7-7.5
		c1.8-3.7,7.3-6.8,18.1-10.5c3.2-1.1,7.9-2.1,10-5.1c0.8-1.1,1.1-2.4,1.2-3.7c0.1-2.7,0.4-5.7-0.6-8.2c-0.8-2.1-2.5-3.4-4-5l0.1-3.7
		c0.1-2.3-0.1-4-0.5-4.4c-0.4-0.5-0.6-1.9-0.5-3.4c0.1-2.4,0-2.8-1.7-4.3l-1.8-1.7l2.2-2.3c2-2,2.2-2.5,2.5-5.4
		c0.5-4.1,0-4.8-5.8-7.8c-5.9-3.1-13-7-15.7-8.7c-3.6-2.2-4.3-3.1-4.3-5.4c0-4.8-8.1-13.1-18.8-19.2c-2.5-1.4-4.7-2.5-5-2.5
		c-0.2,0-1.2-0.4-2-0.8c-3.1-1.7-9-2.9-15.5-3.1c-6.4-0.2-16,0.4-19,1.3c-14.6,4.5-22.2,8.8-30.5,17.2c-4,4.1-5.5,5.9-7.3,9.5
		c-5.1,9.8-6.9,18-6.2,29c0.6,9.5,3.5,17.1,9.6,25.1c2.7,3.5,4.4,5.1,15.9,15c4,3.4,5.1,4.8,6.5,7.6c1,1.8,2,4.8,2.3,6.4
		c0.5,2.8,0.5,3.3-0.7,7.2c-2.4,7.7-6.6,13.3-12.1,16c-4,2-8.7,2.8-17.8,3.5c-9.2,0.5-12.2,1-18.7,3c-17,4.9-32.7,16.1-46.4,33
		c-6.1,7.5-13.2,15.2-18.1,19.6c-2.8,2.5-5.2,4.8-5.5,5.1c-0.8,0.9-7.3,6-9.8,7.6c-2.3,1.6-19.5,11.3-22.5,12.8
		c-4.3,2.1-12.2,5.2-20.2,7.9c-11.3,3.8-15.2,5.4-23.5,9.6c-6.9,3.5-15.8,9.2-21.7,13.8c-24.4,19.1-31.1,24-42.9,31
		c-6.8,4.1-14.7,8.9-22.4,11c-7.7,2.1-14.9,6.7-22,10.4c-15.5,8-31,16-46.8,23.4c-7.6,3.6-15.6,8.2-23.8,10.6
		c-5,1.5-9.7,3.1-13.2,7.3c-2.1,2.6-3,7,0.2,9.2c1.7,1.2,4,1.5,6.1,1.5c6.3,0.1,13-2.1,19.1-3.3c6.8-1.4,13.5-2.9,20.2-4.5
		c10.7-2.6,21.2-5.6,31.7-9c10.1-3.2,19.6-8.2,29.5-12.1c16.5-6.5,33.1-12.5,50-17.8c4.4-1.4,8.7-3,13.1-4.2
		c22.7-7.5,42.8-15,51.2-18.9c1.2-0.5,4.3-2.1,6.8-3.5c2.5-1.3,5.2-2.8,6-3.2c1.5-0.8,3.2-2,9.8-6.5c1.7-1.2,5.4-4,8.2-6.2
		c10.5-8.2,9.5-7.6,20.1-11.3c11.6-4,12.9-4.5,21.2-8.3c12.3-5.7,24.8-13.2,37.5-22.6c2.6-1.9,5.6-4,6.7-4.8l2-1.3l1.9,1
		c1,0.5,2.7,1.7,3.7,2.5c1.5,1.3,1.8,1.8,1.8,3.9c0,2.5-0.7,1.2,11.8,24.5c5.9,11,16,31.6,21,42.8c6.4,14.2,10.2,27.9,10.2,36.5
		c0,4.2-1.1,11-2.1,12.9c-0.3,0.5-3,3.5-5.9,6.5c-2.9,3-6.6,7.1-8.3,9c-1.7,2-4.9,5.6-7.3,8.2c-5.9,6.5-21.9,25.6-26.8,32
		c-7.2,9.4-11.6,17.2-14.6,26.3c-3,9.1-3.3,11.4-3.2,23.4c0,10.2,0.1,11.5,1.4,17.5c1.8,8.5,2,10.7,1.1,15.8
		c-0.8,4.5-2,7.5-4.3,10.8c-2.2,3-12.3,14.5-18.6,21c-12.2,12.8-20.8,24.8-32.9,46.4c-9.7,17.1-11,19-16,24.3
		c-9.8,10-18,15.8-34.5,24c-18.2,9.1-26.5,14.6-35,23c-7,7-12.2,14.6-17.6,25.9c-5.8,12.3-17.8,32.4-26,43.8
		c-6.5,9.1-16.5,19.3-21.3,22c-3,1.6-5.7,1.8-18.2,1l-7-0.4l-2.8,1.5c-5.5,3-8.5,9-8.5,17.4c0,6.2,0.9,10.4,4.3,20.2
		c2.4,7,2.9,8.8,2.9,12c0,3.2-0.2,4.2-1.5,7c-2,4.2-4.1,6.5-8.3,9.3c-1.9,1.2-4,3-4.7,3.8c-3.2,3.8-4.6,10.1-3.8,16.7l0.3,3l-2,0.6
		c-2.4,0.7-5.6,3.5-6.9,6.2c-1.3,2.5-1.8,8.6-0.9,11.8c0.3,1.3,1.2,2.8,2.3,3.8l1.7,1.7h5.7c6.4,0,7.3-0.4,8.4-3.7l0.6-1.9h0.2
		c0.4-0.6,1-1.2,1.7-1.5c2-0.9,3.8-2.2,5.7-3.4c0.5-0.7,1.1-1.2,2-1.5h-0.2l5-2.3c8.2-3.8,11.7-6.7,21.5-18.5c1.6-1.9,5.1-6,7.7-9.1
		c14.1-16.5,18.6-22.6,23-31.2c4.2-8,6-10.6,13.8-19.6c7.7-8.9,18.5-19.7,30.2-30c1.5-1.4,3.8-3.5,5.2-4.8c1.3-1.3,4.2-3.7,6.2-5.5
		c2-1.7,5.2-4.5,7-6.2s6.7-6.1,10.8-9.8c4.2-3.7,10.8-9.9,14.8-13.8c21.3-20.6,21.5-20.7,45.5-28.3c8.8-2.8,18-8.8,32.3-21.1
		c4.9-4.2,5.2-4.5,5.2-7c0-1.7,0-1.7,11.4-7.5c6.2-3.1,13-6.8,15.1-8.1s4.4-2.8,5.2-3.2c4.1-2.3,14.5-9.5,19.7-13.6
		c17.1-13.4,29.3-25.2,42-40.4c6.7-8,7.8-9.8,7.6-13l-0.2-2.3l-2.2-0.2c-2.6-0.2-2.8-0.1-7.3,5.4c-13.8,16.8-28.5,31.4-43.8,43.5
		c-9.5,7.6-20.6,14.9-32.5,21.4c-0.5,0.8-1.3,1.4-2.4,1.8c-7.4,2.7-15.1,8.7-20.7,14.2c-1.7,1.8-3.3,3.4-5,5l1.3-0.4l-1.5,1.2
		c-8.5,7.1-16.2,12.2-22.9,15.5c-4.4,2-7.2,3-17.1,6c-9.5,2.8-16.3,7.3-28.5,18.6c-1.9,1.8-7,6.6-11.2,10.6s-8.9,8.3-10.3,9.5
		c-1.4,1.2-5,4.5-8,7.2c-3,2.8-10.2,9.1-15.9,14.2c-22.2,19.7-38.5,36.9-45.9,48.3c-1.2,1.9-3.2,5.5-4.5,8.1
		c-3.5,7-7.5,12.6-16,22.6c-2,2.3-6,7.2-9,10.8c-3,3.6-6.3,7.6-7.5,9c-1.1,1.3-3.5,4-5.2,5.8l-1.1,1.1c-4.6,5.3-10.5,9.8-17.3,11.2
		c-0.7,0.1-1.4,0.2-2.2,0c-4.1,1.7-7.2,4.3-8.7,7.3c-1.1,2.2-1.7,2.9-2.5,2.9c-0.4,0-0.8-0.2-1.2-0.4c-0.5,0-1-0.1-1.4-0.5
		c-1.7-1.4-2.3-3.6-1.5-5.7c0.7-2,2.2-3.5,3.9-4.7c1.6-1.2,3.5-1.7,5.2-2.7c0.2-0.2,0.4-0.3,0.6-0.4c0.1-0.2,0.2-0.3,0.3-0.5
		c0.3-0.6,0.5-1.1,0.7-1.7c-0.2-0.9-0.2-1.8-0.3-2.7c-0.2-0.6-0.3-1.2-0.3-1.8c0-0.5,0.1-1.2,0.3-1.8c0-0.7,0-1.4,0-2.2
		c0-0.7,0.2-1.4,0.5-2.1c0.2-0.7,0.4-1.4,0.7-2.1c1.3-2.4,3.2-4.2,8.3-8c6.6-4.8,9.3-10.5,9.3-19.4c0-5.2-0.8-8.8-3.8-17.1
		c-2.5-7-3.8-12.5-3.8-16.2c0-5,4.2-10.7,8.7-11.8c0.8-0.2,3.6,0,6.4,0.5c6.7,1,10,1,14.5-0.2c4.2-1.1,6.5-2.2,10.4-5.4
		c2.7-2.2,10-9.8,12.4-13c0.6-0.7,1.1-1.3,1.4-1.5c4-6.3,8.7-12.3,12.9-18.2c3-4.2,5.7-8.5,8.2-13c2.4-4.4,3.8-9.2,6.3-13.5
		c0.2-0.3,0.3-0.6,0.5-0.9c1.5-3.6,6.2-12.9,7.9-15.5c9-13.3,20.4-22.6,40.7-33.1c3.4-1.7,7.3-3.8,10.5-5.5c2.5-1.6,5-3.1,7.8-4.3
		c0.1-0.1,0.3-0.1,0.4-0.2c3-3.3,7.9-5.5,11.4-7.3c5.6-2.9,9.8-6.6,13.5-11c4.5-6.8,7.1-10.4,11.3-15.8c2.8-5.1,5.6-10.2,8.1-15.4
		c2.3-4.8,5.1-9.2,7.6-13.9c0.8-1.6,1.6-2.9,2.7-4.3c0.3-0.4,0.8-1.3,1.3-1.7c0.1-1,0.5-2,1.2-2.9c0.2-0.3,0.4-0.6,0.7-0.8
		c0.1-0.1,0.1-0.1,0.2-0.2c0.1-0.2,0.4-0.5,0.8-1c0.7-1.3,1.7-2.4,2.8-3.4c2.2-2.6,5.4-6.3,7.7-8.8c9.5-10.2,19.5-21.8,21.2-24.4
		c0.9-1.5,2-4.2,2.5-6.2l0.9-3.6l0.8,1.6c1.4,2.7,6.8,9.7,10.6,13.5l3.7,3.7l-0.3,0c1.7,1.9,3.1,4.1,5,5.7c1.9,1.6,4.2,2.9,6.6,3.7
		c0.3,0.1,0.7,0.1,1,0.2c12,2.7,19.6,4,25.6,4.4c3.7,0.2,6.8,0.6,7,0.8c0.1,0.1,0.1,0.2,0.1,0.3c2.5,0.5,5.7,1.7,8,3.3
		c0.2-0.2,0.3-0.2,0.4-0.2c0.3,0,2.2,0.6,4,1.4c8.2,3.4,25.7,8.9,34.5,10.8c4.9,1,19.2,3.1,27,3.8c8.5,0.8,35.4,0.3,44.5-0.8
		c15.2-1.9,31.6-3.2,38.3-3.2c5.3,0,12.6,1,14.4,2c0.5,0.3-0.3,1.5-2.9,4.6c-6.3,7.5-11.2,15.2-17.5,28
		c-7.7,15.3-10.2,25.1-10.2,39.8c0,10,0.4,12.6,4.2,29c5.5,23.7,8,46.1,6.5,58.5c-1.3,10.5-4.1,20.8-7,25.9c-1.7,3-4.3,5.1-11.8,9.6
		c-6.8,4-11.2,8.3-12.8,12.7c-1,2.8-1.2,4.1-1.2,9.5c0,6.2,0,6.3,1.8,10.2c1.4,2.8,2.8,4.8,5.2,7.2c3.8,3.8,7,5.5,14.8,8.5
		c6.6,2.4,9,4,12,7.8c3.2,4.2,5.5,8.2,13,23.2c3.6,7.3,7.2,14,7.8,14.9l1.2,1.6h-0.2c1,0.5,1.8,1.2,2.3,2c3.9,3.1,10.7,4.5,15,5.3
		c0.5,0.1,0.9,0.2,1.3,0.4c2.6,0.1,4.6,0.2,5.8,0.3c4.2,0.3,11.8,0.5,17.2,0.5c10.3,0,12.4-0.4,13.6-2.5l0.5-1h0.2
		c0-1.3,0-2.7-0.1-4c-0.5-1.5-1.5-3-2.2-3.8c0,0,0,0,0,0c-0.1-0.2-0.3-0.3-0.4-0.5c-0.4-0.3-0.7-0.7-0.9-1.1
		c-3.6-1.6-5.6-2.2-9.8-2.8c-9.2-1.4-13.3-4-15.9-10.2c-1-2.7-1.1-3.2-0.9-16.5c0.1-15-0.4-24.3-2-31.2c-1.1-5.1-1.2-12.4-0.5-29.8
		c0.7-15.6,1.9-27.7,4.5-44.2c0.5-3.5,1.6-10.2,2.2-14.8c1.1-7.4,2.2-13.2,5.8-29.5c0.6-2.6,2.1-8.1,3.4-12.2
		c1.3-4.1,3.5-11.5,4.8-16.2c7.1-26.7,13.3-45.8,18.5-57c1.2-2.6,3.8-8.2,5.8-12.5c6.9-14.9,7.8-18.1,7.4-27.6
		c-0.2-5.4-0.4-6.6-1.8-10.1c-3.1-7.8-11.8-17.3-22.6-24.9c-12.9-8.9-36.2-20.9-59.8-30.8c-14.6-6.1-29.5-11.3-44.5-16.2
		c-8.2-2.6-16.4-5.1-24.6-7.4c-4.1-1.2-10.6-4.4-14.7-5.5H582c-1.1,0-2,0.3-2.2-0.5c0,0.1-0.1,0.2-0.1,0.3c-0.1,0.5-0.2,2.4,0,2.9
		c0.8,1.8,0.2,3.4,1.6,4.8c1.6,1.5,3.6,1.7,5.6,2.2c2.4,0.7,4.8,1.2,7.1,1.9c3,0.9,6,1.8,8.9,2.7c6.6,2,13.2,4.1,19.8,6.2
		c7.3,2.4,14.7,4.8,21.9,7.5c2.2,0.8,5.9,2.2,8,3c25.8,9.6,59.3,26.4,73,36.5c5.4,4,12,10.3,14.7,14.2c4.1,5.8,6,11.7,5.6,16.8
		c-0.4,4.6-1.8,8.3-7.4,20.1c-2.8,5.7-5.7,12.2-6.5,14.2c-0.8,1.8-2.3,6.1-3.8,10.1c-0.8,4.1-2.1,8.3-3.9,12.1
		c0,0.6-0.1,1.2-0.2,1.8c-0.7,4.1-2.6,7.7-4,11.5c-0.5,1.8-1,3.6-1.3,5.4c-0.1,0.6-0.4,1.2-0.6,1.6c-1,4.6-1.9,9.3-3.2,13.9
		c-0.3,1.2-1,2.1-1.7,2.6c-2.1,6.7-4.4,13.3-6.7,20c-0.9,5.8-1.7,11.7-3.1,17.4c-2.4,9.7-5.7,18.5-6.2,28.6c-0.2,5-1.3,9.4-2.4,14.2
		c-1.1,5-1.1,10-1.1,15c0,3.3,0.2,6.7,0.2,10l0-0.3l-0.1,1.4c0,1.1-0.1,2.1-0.2,3.2c0,0,0,0,0,0l-0.1,1.5
		c-0.2,3.4-0.3,12.7-0.4,20.5c0,13.3,0,14.9,1.2,21.1c1.2,6.3,1.2,7.6,1.1,21.8c0,8.2,0.2,16.8,0.4,19c0.6,4.9,2.2,8.5,5.3,11.8
		c3.3,3.5,6.5,4.9,13.5,5.8c3.1,0.4,6.4,1,7.3,1.5l1.7,0.7l-2.8,0c-17.2-0.2-25.3-1.1-31.2-3.3c-3.9-1.5-8.1-4.5-9.4-6.7
		c-3.3-3.7-5.5-8.7-7.1-13.8c-0.3,0-0.7-0.8-1.3-2.2c-0.6-1.5-2.1-4.5-3.3-6.6c-0.2-0.4-0.4-0.7-0.6-1c-0.5-0.4-1-1-1.4-1.8
		c-1.3-2.8-1.9-5.6-3.9-7.9c-1.5-1.8-3.4-3.8-5.4-5.1c-4.7-3.1-10.9-3.6-15.8-6.5c-4.9-2.8-10.7-8-12.5-13.8
		c-2.2-4.6-2.1-9.1,0.4-12.9c0.7-1.4,1.6-2.5,2.8-3.3c0.8-0.7,1.2-1,1.3-0.8c2.1-1.2,4.6-2.1,6.7-3.8c2.8-2.1,5-5.4,7.3-7.9
		c2.5-2.7,5-5.4,7.5-8.2c0.6-1.4,1.2-2.8,1.8-4.1c2.8-7.2,3.8-14.6,4.1-22.2c0.2-4.9,0.6-9.9,0.3-14.8c-0.3-0.7-0.5-1.4-0.5-2.2
		c0,0.2,0,0.3-0.1,0.3c-0.2,0-0.3-1.4-0.3-3.1c0-0.4,0-0.9,0-1.5c0-0.1,0-0.1-0.1-0.2c-0.2-0.8-0.2-1.5-0.1-2.2
		c-0.4-4.9-1.3-12-2.3-17.9c-0.7-4-0.9-6.3-0.8-6.3c-1.4-4.7-3.2-9.2-3.8-14.1c-0.8-6.7-1.8-13.1-3.1-19.8c-0.2-1.1-0.4-2.2-0.5-3.3
		c-0.1,0.7-0.1,0.3-0.1-1c-0.5-4.5-0.1-9,1.5-13.3c4.4-11.3,8.9-22.5,13.9-33.6c2.4-5.3,4.9-10.6,8.8-15c1.2-1.3,2.5-2.5,3.8-3.7
		c0.7-0.9,1.3-1.7,1.8-2.2c0.3-0.4,0.6-0.7,0.9-0.9c0.2-0.6,0.6-1.1,1-1.6c0.5-0.6,1-1.1,1.6-1.5c-0.2-0.5-0.3-1.1-0.3-1.7
		c0-2.2-0.8-3.7-2.2-5.1l-1.4-0.6c-3.7-1.7-7.5-2.3-14.8-2.7c-7.8-0.3-22.6,0.4-32.3,1.6c-15.8,2-22.6,2.4-37.2,2.5
		c-17,0-23-0.5-37-3.5c-14.2-3-22.5-5.4-33.9-9.5c-2.7-1-4.6-1.7-5.8-2.2c-1.9-0.3-3.5-1.2-5.2-2.2c-2.9-1.7-5-2.4-8.4-2.7
		c-5.5-0.4-12.2-0.7-17.5-2.5c-2.9-0.6-7-1.8-10-3c-6.4-2.5-11-5.5-16-10.5c-8.6-8.3-13.2-15.7-17-26.8c-2.9-8.8-3.5-12.6-3.5-21.9
		c0-7.2,0.2-8.9,1.3-13.1c1.9-7.1,6.7-17.1,12.5-26c3.5-5.3,13.8-18.1,20.1-25.1c2.8-3,7-7.7,9.4-10.5s7.4-8.3,11-12.2
		c3.6-4,7.3-8,8.2-9c0,0,0,0,0,0c1.2-1.8,2.4-3.7,3.5-5.7c1.1-2.1,1.7-4.6,2-7.3c-0.1-1-0.1-3,0-6.9c0.2-6.6,0-8.8-0.9-13.6
		c-1.2-6.5-1.4-7.1-4.1-15c-3.2-9.2-8.7-21-20.4-44.4c-1.8-3.6-3.4-6.8-4.5-9.2c-4.3-5.6-6.4-13-9.4-19.3c-2.3-5-4.8-9.9-8-14.4
		c-0.3-0.2-0.6-0.5-0.9-0.7c-2.1-0.3-4.2-0.5-6.3-0.9c-2.7-0.4-5.3-1.1-8-0.3c-1.4,0.4-2.8,1.1-4.1,1.8
		c-3.8,3.2-19.2,14.3-20.1,14.3c-0.2,0-0.9,0.4-1.6,1c-1.7,1.1-9.8,5.5-16.2,8.6c-2.7,1.4-5.5,2.7-6.2,2.9c-0.6,0.2-0.9,0.3-0.9,0.2
		c-3.7,1.6-7.5,2.9-11.4,4.5c-3.6,1.4-7.2,2.2-10.5,4.3c-4.3,2.8-8.7,5.5-13,8.3c-11.3,7.2-22.3,15.2-34.4,20.8
		c-9.3,4.3-19,7.8-28.7,11.1c-3,1-6,2.1-8.9,3.1c-2.9,1-7.3,3.5-10.3,3.5c-11.7,4-26.2,9-32.2,11.2c-32.7,12.3-63.4,28.7-97.8,36.1
		c-9.8,2.1-19.9,3.9-29.8,5.1c-1.1,0.1-2.3,0.1-3.1-0.7c-1-0.9-0.9-2.4-0.1-3.4c0-0.1,0.1-0.1,0.1-0.2c0.5-1.6,3.2-1.9,4.5-2.4
		c1.1,0,2.7-1.1,3.7-1.4c1.2-0.4,2.4-0.9,3.6-1.3c2.7-0.9,5.4-1.8,8.1-2.8c14.8-5.3,29-11.9,42.6-19.8c8.4-4.8,16.5-10.1,25.3-14.1
		c9.5-4.3,19.5-6.8,29-11.2c15.7-7.3,30.8-16.5,44.2-27.4c7.5-6,18.2-14,23.4-17.2c6.5-4.1,13.5-7.4,20.6-10.3
		c8-3.2,16.2-5.5,24.2-8.5c5.1-1.9,10.2-4,15.1-6.5c13.7-6.8,26-16.3,36.2-27.7c2.2-2.4,4.2-4.9,6.2-7.4c1.9-2.5,4.1-4.4,6-6.8
		c5.2-6.3,14.1-15.4,18.3-18.8c8-6.4,20.2-12.6,29.5-15c6.2-1.6,12.8-2,19.2-2.6c4.8-0.4,9.6-1.1,14-2.8
		c10.9-4.2,15.5-14.8,16.3-25.8c0.4-4.2-0.7-10.4-2.5-14.5c-1.5-3.3-5.2-7.4-11.2-12.2c-5.9-4.8-9.8-8.6-12.8-12.8
		c-12.5-16.9-10.3-36.5,5.8-52.8c6.4-6.4,13.2-10.5,23.1-13.8c6.9-2.3,11.4-3,17.6-2.7c8.3,0.5,16,3.2,24,8.6
		c8.2,5.5,12.1,10,12.8,15.1c0.2,1.5,0.8,3.2,1.3,3.8c1.3,1.5,8.7,5.8,16.8,9.7c6.1,3,6.8,3.5,6,4c-0.5,0.4-1.3,0.7-1.8,0.7
		s-1.5,0.7-2.2,1.5c-1,1.2-1.3,2-1.3,4.3c0,2.6,0.2,3,1.6,4.2l1.6,1.3l-1.1,1.4c-0.8,1-1.1,2.1-1.1,3.5c0,2.3,0.5,2.8,3,2.8
		c1.8,0,2,0.6,2,5v3.3c0.8,0.8,1.5,1.6,2.2,2.4c0.8,0.9,3.1,2.4,3,3.5c0,0.7-0.6,1.1-1.2,1.5c-2.1,1.4-4.3,2.1-6.6,3
		c-2.2,1-4,2.5-6.2,3.4c-2.6,1.1-5.1,2.3-7.7,3.6c-4.4,2.1-9,7.5-8.9,12.6c0,3.8-0.4,7.7-0.7,11.5c-0.6,7.8-1.1,15.6-0.9,23.4
		c0,2.7,1.5,6,2.6,8.5c1.4,2.8,3.3,5.3,5.7,7.2c2.6,1.9,7.4,2.2,10.5,2.5c4,0.5,8,0.5,12,0c3.9-0.4,7.7-1.3,11.5-2.2
		c7.3-1.9,15-2.6,22.5-2.3c3.3,0.1,6.6,0.6,9.9,0.9c3,0.4,6,1.5,9.1,2.1c4.9,0.9,9.9,1.2,14.9,1c2.3-0.1,3.8-0.4,5.9-1.3
		c2.1-0.9,4.4-1.5,6.6-2.2c13.6-4.2,19-5,38.2-5.5c16.8-0.5,18.3-0.7,22.7-3.2c1.2-0.7,5.2-3.8,8.9-6.8c9.4-7.7,16.2-12.2,37.9-25
		c6.8-4,19.6-12.5,27-17.9c0.1-0.2,0.2-0.3,0.3-0.4c5.2-5.1,12.1-8,17.1-13.3c2.3-2.5,4.4-5.2,6.9-7.6c1.7-1.7,3.6-3.2,5.6-4.4
		c0,0,0-0.1,0-0.1c1-2,34.9-19.7,41.3-24c0.4-0.2,0.8-0.5,1.3-0.7c0.8-0.5,1.5-1,2.3-1.6c0.7-0.5,1.5-1,2.3-1.4
		c0.2-0.1,0.4-0.2,0.7-0.4c0.3-0.2,0.6-0.4,0.9-0.7c2.2-1.6,4.6-3.1,6.8-4.8c0,0,0,0,0,0c3.3-2.4,6.2-5.5,9.2-8.3
		c1.3-1.2,2.6-2.4,4.1-3.4c0.9-0.6,2-1,3-0.9c1.5,0.2,2.5,2.1,1.1,3.2c-2,1.6-4.3,3.1-6.2,4.9c-1.9,1.9-3.3,4.2-4.5,6.6
		c-1.7,3.3-3,6.8-5.2,9.9c-2.3,2.1-4.5,4.4-7,6.4c-2.5,2-5.4,3.5-8.1,5.1c-3.9,2.4-7.8,4.8-11.5,7.4c-0.1,0.1-0.3,0.3-0.4,0.4
		c-3,2.8-4.5,3.8-13.2,8.5c-3.7,2-8.4,4.8-10.5,6.2c-4.5,3-12.6,11-22.8,22.3c-5.2,5.8-10.7,11.5-16.2,17c-2.5,2.5-5.3,4.9-7.7,7.5
		c-2.7,2.9-6,5.1-9.2,7.6c-3.9,3.1-7.7,6.3-11.3,9.7c-10.2,9.7-19,23.4-32.6,28.5c-5.8,2.2-11.7,4.3-17.2,7.1
		c-7.7,4-15.7,6.7-24,9.2c-8.8,2.7-17.7,5.3-26.5,8c-1.3,0.4-2.7,0.8-4,1.2c-8.2,2.5-16.3,4.9-24.7,6.3c-4.8,0.8-9.7,1.2-14.6,1.1
		c-2.5-0.1-4.9-0.3-7.4-0.6c-0.6-0.1-2.8-0.8-3.3-0.5c-0.4,0.3,0.1,2.3,0.2,2.8c3,10.8,3.8,15.5,3.9,20.8c0,5.1,0,5.8-1.6,9.3
		c-0.6,1.5-1.1,2.6-1.5,3.4c-0.4,4-2.3,7.9-5,11.1c1.6,3.4,2.8,7.6,3.8,13.7c0.5,1.9,0.8,3.9,0.9,6c0.1,1.2,0.1,1.9,0,1.9
		c0,3.7-0.5,7.5-1,10.8c-0.4,3-1,6-1.8,9c-1,8.2-3.2,16-5.9,24.1c-0.3,0.9-0.6,1.7-0.9,2.6c-0.1,0.5-0.3,1.1-0.4,1.6
		c-1.3,5.2-7.1,23.7-9,29.1c-2.6,7.4-5.5,15.1-7.2,19.6c-2.2,9-6,17.8-8.9,26.6c-1.3,3.9-3,7.7-4.7,11.4c-1.4,3-3.8,6.1-4,9.5
		c0,0.3,0,0.5,0.1,0.7c0.6-1.4,3.6,0.1,4.8,0.5l2.6-4.6c5.3-9.6,7.9-16.2,17.8-43.9c2-5.7,4.7-13,6-16.5c3.8-10.4,11-30.5,12.2-34.2
		c5.3-17.8,7.4-31.9,6.9-46c-0.3-8.8-1.1-14.3-2.9-20.2l-1-3.2l1.5-1.6c1.8-1.8,2.8-3.8,4.4-8.5c1.7-4.8,2.2-15.3,1-22.1
		c-0.4-2.5-0.9-4.9-1-5.2c-0.2-0.6,0.5-0.7,4.3-0.6c5.4,0.2,9.1-0.2,22.6-2.9c16.8-3.3,26.1-5.8,47.1-12.7c7-2.3,20.2-7.5,30.2-11.9
		c7.9-3.5,15-7,21.8-11.2c0.1-0.1,0.2-0.2,0.4-0.4c2.8-2.8,5.3-5.8,8-8.7c2.2-2.3,4.8-4.2,7.6-5.7c1.4-1.8,3-3.4,4.6-4.8
		c1.4-1.3,2.9-2.4,4.4-3.6c0.6-0.7,1.2-1.4,1.9-2.1c3.8-4.1,7.9-8.1,12-11.9c8.2-7.8,16.8-15.2,24.6-23.4c0.2-0.2,0.5-0.4,0.7-0.5
		c1.6-1.5,3.3-3,5-4.5c3.8-4.4,7.8-8.7,11.9-12.8c0.9-0.9,1.6-1.9,2.6-2.7c2.4-1.9,5-3.5,7.5-5.2c5.1-3.6,10.3-7.1,15.4-10.8
		c5.1-3.7,9.7-8,14.6-11.8c2.7-2.1,5.6-3.7,8.4-5.6c2.8-2,5.5-4.2,8.1-6.5c3.5-3,5.7-6.4,7.4-10.6c1.6-3.9,4-7.1,7.1-9.9
		c2-1.9,4.2-3.6,5.5-6.1C916.8,105,918.1,102,916.8,99.9z"/>
	<path d="M582.6,498.8H580c-1.1,0-2,0.3-2.2-0.5C578.3,497,581.3,498.5,582.6,498.8z"/>
</g>
</svg>
